<svg width="11" height="16" viewBox="0 0 11 16" fill="none" xmlns="http://www.w3.org/2000/svg">
<path d="M9.25691 8.36627C9.24324 6.56945 10.5965 5.69362 10.6595 5.65449C9.89244 4.42651 8.70358 4.25797 8.28445 4.24593C7.28462 4.13158 6.31762 4.90207 5.80812 4.90207C5.29037 4.90207 4.50691 4.25797 3.66047 4.27604C2.57295 4.29409 1.55666 4.98634 1.00058 6.05781C-0.149945 8.24588 0.707476 11.4602 1.81142 13.23C2.36201 14.0968 3.00578 15.0629 3.84949 15.0298C4.67401 14.9937 4.98357 14.4519 5.97794 14.4519C6.96411 14.4519 7.25446 15.0298 8.11463 15.0087C8.99943 14.9937 9.55826 14.1389 10.0897 13.2661C10.7279 12.2729 10.9827 11.2947 10.9937 11.2466C10.9718 11.2315 9.27336 10.5182 9.25691 8.36627ZM7.6325 3.08117C8.07626 2.4702 8.38032 1.64253 8.29541 0.799805C7.65442 0.829886 6.84904 1.28737 6.38883 1.88331C5.98069 2.41001 5.6136 3.27077 5.7095 4.0804C6.42719 4.13758 7.16955 3.6801 7.6325 3.08117Z" fill="#2362A3"/>
</svg>
