<svg width="32" height="32" viewBox="0 0 32 32" fill="none" xmlns="http://www.w3.org/2000/svg">
<rect width="32" height="32" rx="16" fill="#3F6FAA"/>
<path d="M16.0002 16.708L10.7542 21.954C10.6609 22.0473 10.5462 22.0973 10.4102 22.104C10.2742 22.1107 10.1529 22.0607 10.0462 21.954C9.93956 21.8473 9.88623 21.7293 9.88623 21.6C9.88623 21.4707 9.93956 21.3527 10.0462 21.246L15.2922 16L10.0462 10.754C9.9529 10.6607 9.9029 10.546 9.89623 10.41C9.88956 10.274 9.93956 10.1527 10.0462 10.046C10.1529 9.93932 10.2709 9.88599 10.4002 9.88599C10.5296 9.88599 10.6476 9.93932 10.7542 10.046L16.0002 15.292L21.2462 10.046C21.3396 9.95265 21.4546 9.90265 21.5912 9.89599C21.7266 9.88932 21.8476 9.93932 21.9542 10.046C22.0609 10.1527 22.1142 10.2707 22.1142 10.4C22.1142 10.5293 22.0609 10.6473 21.9542 10.754L16.7082 16L21.9542 21.246C22.0476 21.3393 22.0976 21.4543 22.1042 21.591C22.1109 21.7263 22.0609 21.8473 21.9542 21.954C21.8476 22.0607 21.7296 22.114 21.6002 22.114C21.4709 22.114 21.3529 22.0607 21.2462 21.954L16.0002 16.708Z" fill="#08192D"/>
</svg>
