<svg width="25" height="24" viewBox="0 0 25 24" fill="none" xmlns="http://www.w3.org/2000/svg">
<g opacity="0.7">
<path d="M13.1356 3.11028C12.7837 2.96448 12.3955 2.96321 12.0429 3.10672L4.27724 6.38978C3.20002 6.8452 2.5 7.90115 2.5 9.07068L2.5 17L22.5 17L22.4999 9.05708C22.4999 7.89443 21.808 6.84331 20.7401 6.38363L13.1356 3.11028Z" fill="url(#paint0_linear_80_970)"/>
<path d="M21.5 13.2536C21.5 14.2181 20.7181 15 19.7536 15L5.24639 15C4.28188 15 3.5 14.2181 3.5 13.2536L3.5 6.74639C3.5 5.78188 4.28188 5 5.24639 5L19.7536 5C20.7181 5 21.5 5.78189 21.5 6.74639L21.5 13.2536Z" fill="#D5E7FF"/>
<path d="M2.5 12.0188L2.5 19.0188L22.5 19.0188L22.5 12.0188L12.5 16.4701L2.5 12.0188Z" fill="#C3D6F3"/>
<path d="M13.1356 12.1376C12.7837 11.9805 12.3955 11.9792 12.0429 12.1337L2.5 16.4783L2.5 18.1082C2.5 19.7157 3.80314 21.0188 5.41064 21.0188L19.5893 21.0188C21.1968 21.0188 22.5 19.7156 22.4999 18.1081L22.4999 16.4783L13.1356 12.1376Z" fill="url(#paint1_linear_80_970)"/>
<path opacity="0.25" d="M16.0813 11.2624L16.8969 12.078H16.896C17.0448 12.2268 17.0448 12.4682 16.896 12.617L16.0804 13.4326C16.0062 13.5072 15.9083 13.5443 15.8109 13.5443C15.7135 13.5443 15.6161 13.5068 15.5414 13.4326C15.3926 13.2838 15.3926 13.0425 15.5414 12.8936L15.7063 12.7287H11.5944C10.9267 12.7287 10.4034 12.2157 10.4034 11.5851C10.4034 10.9545 10.9164 10.4414 11.547 10.4414H13.0004C13.2104 10.4414 13.3816 10.2703 13.3816 10.0602C13.3816 9.85017 13.2104 9.679 13.0004 9.679H8.8013L8.96621 9.84391C9.11504 9.99274 9.11504 10.2341 8.96621 10.3829C8.89203 10.4575 8.79415 10.4946 8.69672 10.4946C8.5993 10.4946 8.50187 10.4575 8.42723 10.3829L7.61162 9.56728C7.46279 9.41845 7.46279 9.17712 7.61162 9.0283L8.42723 8.21269C8.57606 8.06387 8.81739 8.06387 8.96621 8.21269C9.11504 8.36151 9.11504 8.60284 8.96621 8.75166L8.8013 8.91657H13.0004C13.631 8.91657 14.144 9.42963 14.144 10.0602C14.144 10.6908 13.631 11.2039 13.0004 11.2039H11.547C11.337 11.2039 11.1658 11.3643 11.1658 11.5851C11.1658 11.8059 11.3464 11.9663 11.5948 11.9663H15.7072L15.5423 11.8014C15.3935 11.6526 15.3935 11.4112 15.5423 11.2624C15.6911 11.1136 15.9325 11.1136 16.0813 11.2624Z" fill="#7188A6"/>
</g>
<path d="M12.4997 14.9791C12.3886 14.9791 12.2844 14.9619 12.1872 14.9274C12.09 14.893 11.9997 14.8338 11.9163 14.7499L8.91634 11.7499C8.74967 11.5833 8.66967 11.3888 8.67634 11.1666C8.68301 10.9444 8.76301 10.7499 8.91634 10.5833C9.08301 10.4166 9.28106 10.3299 9.51051 10.3233C9.73995 10.3166 9.93773 10.3963 10.1038 10.5624L11.6663 12.1249V6.16659C11.6663 5.93048 11.7463 5.7327 11.9063 5.57325C12.0663 5.41381 12.2641 5.33381 12.4997 5.33325C12.7352 5.3327 12.9333 5.4127 13.0938 5.57325C13.2544 5.73381 13.3341 5.93159 13.333 6.16659V12.1249L14.8955 10.5624C15.0622 10.3958 15.2602 10.3158 15.4897 10.3224C15.7191 10.3291 15.9169 10.416 16.083 10.5833C16.2358 10.7499 16.3158 10.9444 16.323 11.1666C16.3302 11.3888 16.2502 11.5833 16.083 11.7499L13.083 14.7499C12.9997 14.8333 12.9094 14.8924 12.8122 14.9274C12.715 14.9624 12.6108 14.9796 12.4997 14.9791ZM7.49967 18.6666C7.04134 18.6666 6.64912 18.5035 6.32301 18.1774C5.9969 17.8513 5.83356 17.4588 5.83301 16.9999V15.3333C5.83301 15.0971 5.91301 14.8994 6.07301 14.7399C6.23301 14.5805 6.43079 14.5005 6.66634 14.4999C6.9019 14.4994 7.09995 14.5794 7.26051 14.7399C7.42106 14.9005 7.50079 15.0983 7.49967 15.3333V16.9999H17.4997V15.3333C17.4997 15.0971 17.5797 14.8994 17.7397 14.7399C17.8997 14.5805 18.0975 14.5005 18.333 14.4999C18.5686 14.4994 18.7666 14.5794 18.9272 14.7399C19.0877 14.9005 19.1675 15.0983 19.1663 15.3333V16.9999C19.1663 17.4583 19.0033 17.8508 18.6772 18.1774C18.3511 18.5041 17.9586 18.6671 17.4997 18.6666H7.49967Z" fill="#82A6D3"/>
<defs>
<linearGradient id="paint0_linear_80_970" x1="12.4994" y1="7.65404" x2="12.4993" y2="19.397" gradientUnits="userSpaceOnUse">
<stop stop-color="#9ABCE8"/>
<stop offset="1" stop-color="#C4D6EF"/>
</linearGradient>
<linearGradient id="paint1_linear_80_970" x1="12.4994" y1="12.0188" x2="12.4993" y2="24.6647" gradientUnits="userSpaceOnUse">
<stop stop-color="#9ABCE8"/>
<stop offset="1" stop-color="#C4D6EF"/>
</linearGradient>
</defs>
</svg>
