<svg width="25" height="24" viewBox="0 0 25 24" fill="none" xmlns="http://www.w3.org/2000/svg">
<g opacity="0.7">
<path opacity="0.8" d="M3.90076 15.5L3.1014 17.3313C2.3458 19.0623 3.61422 21 5.50298 21H19.497C21.3858 21 22.6542 19.0623 21.8986 17.3313L21.0992 15.5C20.5442 13.8932 16.9544 11.2011 12.5 11C8.04557 11.2011 4.45583 13.8932 3.90076 15.5Z" fill="url(#paint0_linear_80_826)"/>
<circle cx="5.88347" cy="5.88347" r="5.88347" transform="matrix(-1 0 0 1 18.2676 2.23315)" fill="url(#paint1_radial_80_826)"/>
<path d="M14.9209 9.27028C14.2103 10.8084 12.4983 11.2314 11.5754 11.2314C10.1911 11.2314 9.09511 10.8277 8.46062 9.27028C8.46062 9.27028 9.67192 9.03955 11.5754 9.03955C13.4789 9.03955 14.9209 9.27028 14.9209 9.27028Z" fill="#7198C9"/>
</g>
<path d="M12.4997 14.9791C12.3886 14.9791 12.2844 14.9619 12.1872 14.9274C12.09 14.893 11.9997 14.8338 11.9163 14.7499L8.91634 11.7499C8.74967 11.5833 8.66967 11.3888 8.67634 11.1666C8.68301 10.9444 8.76301 10.7499 8.91634 10.5833C9.08301 10.4166 9.28106 10.3299 9.51051 10.3233C9.73995 10.3166 9.93773 10.3963 10.1038 10.5624L11.6663 12.1249V6.16659C11.6663 5.93048 11.7463 5.7327 11.9063 5.57325C12.0663 5.41381 12.2641 5.33381 12.4997 5.33325C12.7352 5.3327 12.9333 5.4127 13.0938 5.57325C13.2544 5.73381 13.3341 5.93159 13.333 6.16659V12.1249L14.8955 10.5624C15.0622 10.3958 15.2602 10.3158 15.4897 10.3224C15.7191 10.3291 15.9169 10.416 16.083 10.5833C16.2358 10.7499 16.3158 10.9444 16.323 11.1666C16.3302 11.3888 16.2502 11.5833 16.083 11.7499L13.083 14.7499C12.9997 14.8333 12.9094 14.8924 12.8122 14.9274C12.715 14.9624 12.6108 14.9796 12.4997 14.9791ZM7.49967 18.6666C7.04134 18.6666 6.64912 18.5035 6.32301 18.1774C5.9969 17.8513 5.83356 17.4588 5.83301 16.9999V15.3333C5.83301 15.0971 5.91301 14.8994 6.07301 14.7399C6.23301 14.5805 6.43079 14.5005 6.66634 14.4999C6.9019 14.4994 7.09995 14.5794 7.26051 14.7399C7.42106 14.9005 7.50079 15.0983 7.49967 15.3333V16.9999H17.4997V15.3333C17.4997 15.0971 17.5797 14.8994 17.7397 14.7399C17.8997 14.5805 18.0975 14.5005 18.333 14.4999C18.5686 14.4994 18.7666 14.5794 18.9272 14.7399C19.0877 14.9005 19.1675 15.0983 19.1663 15.3333V16.9999C19.1663 17.4583 19.0033 17.8508 18.6772 18.1774C18.3511 18.5041 17.9586 18.6671 17.4997 18.6666H7.49967Z" fill="#82A6D3"/>
<defs>
<linearGradient id="paint0_linear_80_826" x1="12.5" y1="21" x2="12.5" y2="11" gradientUnits="userSpaceOnUse">
<stop stop-color="#9BBCE6"/>
<stop offset="0.8" stop-color="#C8DAF3"/>
</linearGradient>
<radialGradient id="paint1_radial_80_826" cx="0" cy="0" r="1" gradientUnits="userSpaceOnUse" gradientTransform="translate(9.25881 1.29689) rotate(107.868) scale(11.0007)">
<stop stop-color="#C6DFFF"/>
<stop offset="1" stop-color="#DEECFF"/>
</radialGradient>
</defs>
</svg>
