<svg width="60" height="52" viewBox="0 0 60 52" fill="none" xmlns="http://www.w3.org/2000/svg">
<rect y="37.1074" width="18.0347" height="14.5662" rx="2.76206" fill="#C1D4EF" fill-opacity="0.9"/>
<rect x="36.0703" width="23.9306" height="15.78" rx="2.76206" fill="#C1D4EF" fill-opacity="0.9"/>
<rect x="36.0703" y="18.3789" width="23.9306" height="15.78" rx="2.76206" fill="#C1D4EF" fill-opacity="0.9"/>
<rect x="20.8086" y="37.1094" width="18.0347" height="14.5662" rx="2.76206" fill="#C1D4EF" fill-opacity="0.9"/>
<rect x="41.6172" y="37.1094" width="18.0347" height="14.5662" rx="2.76206" fill="#C1D4EF" fill-opacity="0.9"/>
<rect x="38.9531" y="3.25977" width="4.58953" height="4.60343" rx="2.29477" fill="#68A0E8" fill-opacity="0.5"/>
<rect x="38.9531" y="21.6445" width="4.58953" height="4.60343" rx="2.29477" fill="#68A0E8" fill-opacity="0.5"/>
<rect x="0.167969" y="0.0429688" width="33.2741" height="34.2955" rx="2.76206" fill="#C1D4EF" fill-opacity="0.9"/>
<rect x="24.2773" y="40.9258" width="11.0983" height="3.46814" rx="1.73407" fill="#68A0E8" fill-opacity="0.5"/>
<rect x="3.46875" y="40.9238" width="11.4451" height="3.46814" rx="1.73407" fill="#68A0E8" fill-opacity="0.5"/>
<rect x="45.0859" y="40.9238" width="11.4451" height="3.46814" rx="1.73407" fill="#68A0E8" fill-opacity="0.5"/>
<rect x="46.4727" y="3.81445" width="8.32369" height="3.46814" rx="1.73407" fill="#68A0E8" fill-opacity="0.5"/>
<rect x="46.4727" y="22.1992" width="8.32369" height="3.46814" rx="1.73407" fill="#68A0E8" fill-opacity="0.5"/>
</svg>
