<svg width="62" height="51" viewBox="0 0 62 51" fill="none" xmlns="http://www.w3.org/2000/svg">
<path d="M32.9624 0.311742C31.8786 -0.0985095 30.6829 -0.102065 29.5967 0.301728L2.236 10.8687C1.0119 11.3414 0.204707 12.5185 0.204707 13.8307L0.204704 39.3926L61.8047 39.3926L61.8044 13.8165C61.8044 12.5113 61.0057 11.3391 59.7911 10.8615L32.9624 0.311742Z" fill="url(#paint0_linear_691_5759)"/>
<path d="M59.0586 32.0792C59.0586 33.1314 58.2056 33.9844 57.1534 33.9844L4.84917 33.9844C3.79698 33.9844 2.94401 33.1314 2.94401 32.0792L2.94401 6.90189C2.94401 5.8497 3.79698 4.99674 4.84917 4.99674L57.1534 4.99674C58.2056 4.99674 59.0586 5.84971 59.0586 6.9019L59.0586 32.0792Z" fill="white"/>
<path d="M0.204706 26.4471L0.204704 43.9375L61.8047 43.9375L61.8047 26.4471L31.0047 37.5693L0.204706 26.4471Z" fill="#C3D6F3"/>
<path d="M32.9624 27.0845C31.8786 26.6743 30.6829 26.6707 29.5967 27.0745L0.204705 38.4259L0.204705 47.1138C0.204704 48.8674 1.62631 50.2891 3.37996 50.2891L58.6293 50.2891C60.383 50.2891 61.8046 48.8674 61.8046 47.1137L61.8044 38.426L32.9624 27.0845Z" fill="url(#paint1_linear_691_5759)"/>
<path opacity="0.25" d="M41.7229 18.5159L44.0067 20.7996H44.0042C44.4209 21.2163 44.4209 21.892 44.0042 22.3087L41.7204 24.5925C41.5127 24.8014 41.2387 24.9053 40.9659 24.9053C40.6931 24.9053 40.4203 24.8002 40.2113 24.5925C39.7946 24.1758 39.7946 23.5 40.2113 23.0833L40.673 22.6216H29.1596C27.2901 22.6216 25.8248 21.185 25.8248 19.4193C25.8248 17.6537 27.2613 16.2171 29.027 16.2171H33.0964C33.6845 16.2171 34.1638 15.7378 34.1638 15.1497C34.1638 14.5616 33.6845 14.0823 33.0964 14.0823H21.339L21.8007 14.544C22.2174 14.9608 22.2174 15.6365 21.8007 16.0532C21.593 16.2622 21.3189 16.366 21.0461 16.366C20.7733 16.366 20.5005 16.2622 20.2916 16.0532L18.0078 13.7695C17.5911 13.3528 17.5911 12.677 18.0078 12.2603L20.2916 9.97659C20.7083 9.55989 21.384 9.55989 21.8007 9.97659C22.2174 10.3933 22.2174 11.069 21.8007 11.4857L21.339 11.9475H33.0964C34.8621 11.9475 36.2986 13.384 36.2986 15.1497C36.2986 16.9154 34.8621 18.3519 33.0964 18.3519H29.027C28.4388 18.3519 27.9596 18.8012 27.9596 19.4193C27.9596 20.0375 28.4651 20.4867 29.1609 20.4867H40.6755L40.2138 20.025C39.7971 19.6083 39.7971 18.9326 40.2138 18.5159C40.6305 18.0992 41.3062 18.0992 41.7229 18.5159Z" fill="#879DB9"/>
<defs>
<linearGradient id="paint0_linear_691_5759" x1="31.0027" y1="13.0963" x2="31.0027" y2="46.1369" gradientUnits="userSpaceOnUse">
<stop stop-color="#9ABCE8"/>
<stop offset="1" stop-color="#C4D6EF"/>
</linearGradient>
<linearGradient id="paint1_linear_691_5759" x1="31.0027" y1="26.7742" x2="31.0027" y2="59.8148" gradientUnits="userSpaceOnUse">
<stop stop-color="#9ABCE8"/>
<stop offset="1" stop-color="#C4D6EF"/>
</linearGradient>
</defs>
</svg>
