<svg width="56" height="56" viewBox="0 0 56 56" fill="none" xmlns="http://www.w3.org/2000/svg">
<path d="M21.2109 1.69502C21.2109 0.757805 21.9707 -0.00195312 22.9079 -0.00195312H33.0897C34.0269 -0.00195312 34.7867 0.757806 34.7867 1.69502V8.20007H21.2109V1.69502Z" fill="#4181CF"/>
<path d="M34.7852 54.3011C34.7852 55.2383 34.0254 55.998 33.0882 55.998L22.9064 55.998C21.9692 55.998 21.2094 55.2383 21.2094 54.3011L21.2094 47.796L34.7852 47.796L34.7852 54.3011Z" fill="#4181CF"/>
<path d="M41.7922 4.59447C42.455 3.93176 43.5294 3.93176 44.1921 4.59447L51.3918 11.7941C52.0545 12.4568 52.0545 13.5313 51.3918 14.194L46.792 18.7937L37.1925 9.19424L41.7922 4.59447Z" fill="#4181CF"/>
<path d="M14.1921 51.3938C13.5294 52.0565 12.455 52.0565 11.7922 51.3938L4.59262 44.1942C3.92991 43.5315 3.92991 42.457 4.59262 41.7943L9.19238 37.1945L18.7919 46.794L14.1921 51.3938Z" fill="#4181CF"/>
<path d="M54.303 21.209C55.2402 21.209 56 21.9687 56 22.906L56 33.0878C56 34.025 55.2402 34.7847 54.303 34.7847L47.798 34.7847L47.798 21.209L54.303 21.209Z" fill="#4181CF"/>
<path d="M1.69697 34.7852C0.759758 34.7852 -3.32101e-08 34.0254 -7.41769e-08 33.0882L-5.19238e-07 22.9064C-5.60205e-07 21.9692 0.759759 21.2094 1.69697 21.2094L8.20202 21.2094L8.20202 34.7852L1.69697 34.7852Z" fill="#4181CF"/>
<path d="M51.3938 41.7942C52.0565 42.4569 52.0565 43.5314 51.3938 44.1941L44.1942 51.3937C43.5315 52.0564 42.457 52.0564 41.7943 51.3937L37.1945 46.7939L46.794 37.1944L51.3938 41.7942Z" fill="#4181CF"/>
<path d="M4.59447 14.196C3.93176 13.5333 3.93176 12.4589 4.59447 11.7962L11.7941 4.59652C12.4568 3.93382 13.5313 3.93381 14.194 4.59652L18.7937 9.19629L9.19424 18.7958L4.59447 14.196Z" fill="#4181CF"/>
<circle cx="28.0004" cy="27.9985" r="16.404" stroke="#4181CF" stroke-width="10.7475"/>
<path d="M17.25 22.4847L27.4318 32.5251L41.5732 17.5352" stroke="#CAE0FF" stroke-width="5.65657" stroke-linecap="round" stroke-linejoin="round"/>
</svg>
