<svg width="68" height="40" viewBox="0 0 68 40" fill="none" xmlns="http://www.w3.org/2000/svg">
<path d="M31.4804 15.1633V2.35166C31.4804 1.35311 32.3047 0.542969 33.2975 0.542969C34.2904 0.542969 35.1146 1.35311 35.1146 2.35166V15.1633C35.1146 16.1618 34.2904 16.972 33.2975 16.972C32.3047 16.972 31.4804 16.1618 31.4804 15.1633ZM67.5223 20.0053L63.6072 16.1241C62.8953 15.4082 61.7339 15.4082 61.022 16.1241C60.3102 16.8401 60.3102 17.9893 61.022 18.6864L61.8088 19.4778H15.0331C13.8342 19.4778 12.9725 18.7053 12.9725 17.6691C12.9725 16.6328 13.7967 15.8604 14.7895 15.8604H21.7581C24.7741 15.8604 27.2281 13.4111 27.2281 10.4154C27.2281 7.41978 24.7741 4.97051 21.7581 4.97051H6.24738L7.03416 4.1792C7.746 3.46326 7.746 2.31398 7.03416 1.61688C6.32231 0.900939 5.16088 0.900939 4.44904 1.61688L0.533884 5.49804C-0.177961 6.21398 -0.177961 7.36326 0.533884 8.06036L4.44904 11.9415C4.80496 12.2995 5.27328 12.4691 5.7416 12.4691C6.20992 12.4691 6.67824 12.2995 7.03416 11.9415C7.746 11.2256 7.746 10.0763 7.03416 9.3792L6.24738 8.5879H21.7581C22.7697 8.5879 23.5752 9.39804 23.5752 10.3966C23.5752 11.3951 22.751 12.2053 21.7581 12.2053H14.7895C11.7736 12.2053 9.31956 14.6546 9.31956 17.6502C9.31956 20.6459 11.8298 23.0951 15.0143 23.0951H42.9636V37.6024C42.9636 38.6009 43.7879 39.4111 44.7807 39.4111C45.7736 39.4111 46.5978 38.6009 46.5978 37.6024V23.0951H61.7526L60.9658 23.8864C60.254 24.6024 60.254 25.7517 60.9658 26.4488C61.3218 26.8067 61.7901 26.9763 62.2584 26.9763C62.7267 26.9763 63.195 26.8067 63.551 26.4488L67.4661 22.5676C68.178 21.8517 68.178 20.7024 67.4661 20.0053H67.5223ZM35.0209 32.7415C35.0209 36.4908 31.9488 39.543 28.1647 39.543C24.3807 39.543 21.3085 36.4908 21.3085 32.7415C21.3085 28.9922 24.3807 25.9401 28.1647 25.9401C31.9488 25.9401 35.0209 28.9922 35.0209 32.7415ZM31.368 32.7415C31.368 30.9893 29.9256 29.5575 28.1647 29.5575C26.4039 29.5575 24.9614 30.9893 24.9614 32.7415C24.9614 34.4937 26.4039 35.9256 28.1647 35.9256C29.9256 35.9256 31.368 34.4937 31.368 32.7415ZM41.184 8.5879H52.1427C53.1168 8.5879 53.9223 9.34152 53.9598 10.3024C53.8848 10.7922 53.735 11.2821 53.4915 11.7154C53.1917 12.2618 52.8358 12.7893 52.4237 13.2604L51.8055 13.9763C51.1499 14.7488 51.2623 15.8792 52.0303 16.5386C52.3675 16.8212 52.7983 16.972 53.2105 16.972C53.6226 16.972 54.2408 16.7459 54.6154 16.3314L55.2336 15.6154C55.7956 14.956 56.3014 14.2212 56.7135 13.4488C57.2006 12.5633 57.5003 11.6212 57.6127 10.6227V10.4154C57.6127 7.41978 55.1587 4.97051 52.1427 4.97051H41.184C40.1724 4.97051 39.3669 5.78065 39.3669 6.7792C39.3669 7.77775 40.1912 8.5879 41.184 8.5879Z" fill="#8B95A1"/>
</svg>
