<svg width="228" height="70" viewBox="0 0 228 70" fill="none" xmlns="http://www.w3.org/2000/svg">
<path d="M211.132 0H17.5177C16.876 0 16.242 0 15.6019 0.0035C15.0662 0.007 14.5347 0.0171675 13.9938 0.025725C12.8187 0.0395532 11.6463 0.142933 10.487 0.334967C9.3292 0.531182 8.20771 0.901103 7.16042 1.43222C6.11441 1.96783 5.15864 2.66379 4.32778 3.49487C3.49256 4.32361 2.79634 5.28153 2.26589 6.33178C1.73398 7.37994 1.36515 8.50314 1.17214 9.66259C0.9773 10.8206 0.872453 11.9919 0.858544 13.1661C0.842304 13.7026 0.840589 14.241 0.832031 14.7776V55.2276C0.840589 55.7709 0.842304 56.2973 0.858544 56.8409C0.872458 58.015 0.977305 59.1863 1.17214 60.3442C1.36462 61.5043 1.73347 62.6282 2.26589 63.6767C2.7961 64.7236 3.49242 65.6776 4.32778 66.5017C5.15548 67.3365 6.11187 68.033 7.16042 68.5645C8.2077 69.097 9.32907 69.4691 10.487 69.6684C11.6465 69.8589 12.8188 69.9623 13.9938 69.9778C14.5347 69.9897 15.0662 69.9965 15.6019 69.9965C16.242 70 16.876 70 17.5177 70H211.132C211.761 70 212.4 70 213.029 69.9965C213.562 69.9965 214.109 69.9897 214.642 69.9778C215.815 69.9631 216.985 69.8597 218.142 69.6684C219.304 69.4677 220.429 69.0957 221.482 68.5645C222.529 68.0327 223.485 67.3362 224.312 66.5017C225.145 65.6744 225.843 64.721 226.38 63.6767C226.908 62.6274 227.273 61.5037 227.463 60.3442C227.658 59.1861 227.767 58.0151 227.788 56.8409C227.795 56.2973 227.795 55.7709 227.795 55.2276C227.808 54.5918 227.808 53.9595 227.808 53.3134V16.6882C227.808 16.0474 227.808 15.4116 227.795 14.7776C227.795 14.241 227.795 13.7026 227.788 13.166C227.767 11.9917 227.658 10.8207 227.463 9.66252C227.273 8.50374 226.907 7.38063 226.38 6.33171C225.299 4.22659 223.586 2.51304 221.482 1.43206C220.429 0.902243 219.304 0.532421 218.142 0.33481C216.985 0.14193 215.815 0.0385136 214.642 0.02548C214.109 0.01694 213.562 0.006685 213.029 0.0032725C212.4 0 211.761 0 211.132 0Z" fill="#A6A6A6"/>
<path d="M15.6062 68.4687C15.073 68.4687 14.5527 68.4619 14.0236 68.45C12.9278 68.4357 11.8344 68.3403 10.7527 68.1646C9.74393 67.9909 8.76676 67.6677 7.85336 67.2058C6.94833 66.7477 6.12287 66.147 5.40861 65.4267C4.684 64.715 4.08074 63.8894 3.62271 62.9828C3.15964 62.0704 2.83917 61.0923 2.67246 60.0827C2.49243 58.9979 2.39503 57.901 2.38109 56.8015C2.36999 56.4324 2.35547 55.2036 2.35547 55.2036V14.7776C2.35547 14.7776 2.37094 13.5676 2.38118 13.2121C2.39452 12.1143 2.49136 11.0191 2.67085 9.93603C2.83787 8.92369 3.15859 7.94281 3.62191 7.02735C4.07825 6.1214 4.67816 5.29526 5.3984 4.58094C6.11783 3.85984 6.94593 3.25606 7.8525 2.79162C8.7638 2.33116 9.73913 2.01028 10.7458 1.83972C11.8312 1.66221 12.9283 1.56624 14.028 1.55262L15.607 1.53125H213.016L214.614 1.55348C215.704 1.56642 216.791 1.66154 217.866 1.83801C218.883 2.01071 219.869 2.33383 220.79 2.79674C222.606 3.73273 224.084 5.21354 225.017 7.03162C225.472 7.94076 225.788 8.91364 225.953 9.91723C226.135 11.0092 226.236 12.113 226.257 13.2198C226.262 13.7154 226.262 14.2478 226.262 14.7776C226.276 15.4338 226.276 16.0585 226.276 16.6882V53.3134C226.276 53.9492 226.276 54.5695 226.262 55.195C226.262 55.7641 226.262 56.2854 226.256 56.822C226.235 57.909 226.135 58.9931 225.956 60.0656C225.793 61.0825 225.474 62.0681 225.011 62.9881C224.55 63.8848 223.95 64.7032 223.234 65.4131C222.519 66.1372 221.692 66.7414 220.785 67.2024C219.866 67.6679 218.882 67.9923 217.866 68.1646C216.785 68.3413 215.691 68.4367 214.595 68.45C214.083 68.4619 213.546 68.4687 213.025 68.4687L211.128 68.4722L15.6062 68.4687Z" fill="black"/>
<path d="M67.2093 44.2473H62.8104V50.3535C64.6287 50.3874 66.4462 50.2535 68.2399 49.9536L68.4014 51.2696C66.3358 51.5917 64.2472 51.7432 62.1567 51.7225H61.2031V42.916H67.2094L67.2093 44.2473ZM70.8623 46.6997H72.7618V48.0396H70.8623V54.7678H69.2396V41.6855H70.8623V46.6997Z" fill="white"/>
<path d="M85.8083 48.1321V49.4241H80.8096V51.8918H79.1716V49.4241H73.9805V48.1321H85.8083ZM75.357 44.6782C75.357 43.1624 77.1182 42.0635 79.9021 42.0635C82.686 42.0635 84.4626 43.1624 84.4626 44.6782C84.4626 46.2163 82.6861 47.3152 79.9176 47.3152C77.1182 47.3152 75.357 46.2163 75.357 44.6782ZM77.0566 53.1291H84.4471V54.4143H75.4493V50.6921H77.0566V53.1291ZM77.0105 44.6936C77.0105 45.531 78.2333 46.071 79.8944 46.071C81.6094 46.071 82.7937 45.531 82.7937 44.6936C82.7937 43.8391 81.6171 43.294 79.9021 43.294C78.2333 43.2939 77.0105 43.8391 77.0105 44.6936Z" fill="white"/>
<path d="M99.1091 51.8233V53.1153H87.2812V51.8233H92.38V49.6922H88.7963V45.4009H95.9714V43.8081H88.7732V42.5093H97.6095V46.7082H90.4112V48.4001H97.9402V49.6921H93.9951V51.8232L99.1091 51.8233Z" fill="white"/>
<path d="M112.406 53.0298H100.578V51.7378H112.406L112.406 53.0298ZM110.883 44.102H103.708V47.7012H110.983V49.0068H102.109V42.793H110.883L110.883 44.102Z" fill="white"/>
<path d="M125.391 46.124H117.762V44.8405H125.391L125.391 46.124ZM121.645 52.285C121.11 52.2181 120.606 51.9984 120.193 51.6522C119.781 51.306 119.477 50.848 119.318 50.3332C119.159 49.8185 119.152 49.2688 119.298 48.7502C119.444 48.2316 119.736 47.7662 120.14 47.4097C120.544 47.0531 121.042 46.8208 121.575 46.7404C122.107 46.6601 122.652 46.7352 123.143 46.9567C123.634 47.1782 124.051 47.5368 124.343 47.9893C124.635 48.4418 124.791 48.969 124.791 49.5077C124.781 49.9017 124.691 50.2894 124.524 50.6467C124.358 51.0039 124.12 51.3229 123.824 51.5837C123.529 51.8445 123.183 52.0414 122.808 52.1621C122.433 52.2828 122.037 52.3246 121.645 52.285ZM123.622 43.8477H119.654V42.5335H123.622L123.622 43.8477ZM121.645 51.0067C121.85 51.0195 122.055 50.9901 122.249 50.9203C122.442 50.8506 122.62 50.7419 122.769 50.6011C122.919 50.4603 123.039 50.2902 123.12 50.1015C123.202 49.9127 123.244 49.7093 123.244 49.5036C123.244 49.298 123.202 49.0945 123.12 48.9057C123.039 48.717 122.919 48.547 122.769 48.4061C122.62 48.2653 122.442 48.1567 122.249 48.0869C122.055 48.0172 121.85 47.9878 121.645 48.0006C121.442 47.993 121.241 48.0262 121.052 48.0984C120.863 48.1705 120.69 48.28 120.545 48.4203C120.399 48.5606 120.283 48.7289 120.204 48.915C120.125 49.1011 120.084 49.3013 120.084 49.5036C120.084 49.7059 120.125 49.9061 120.204 50.0922C120.283 50.2784 120.399 50.4466 120.545 50.5869C120.69 50.7273 120.863 50.8368 121.052 50.9089C121.241 50.981 121.442 51.0143 121.645 51.0067ZM128.043 47.0931H129.919V48.4227H128.043V54.7682H126.43V41.6943H128.043L128.043 47.0931Z" fill="white"/>
<path d="M132.074 52.3906L131.16 51.1226C132.522 50.5384 133.71 49.613 134.61 48.4356C135.51 47.2582 136.091 45.8686 136.297 44.4011H131.89V43.063H138.02C138.002 45.0185 137.435 46.9296 136.384 48.5787C135.333 50.2277 133.839 51.5485 132.074 52.3906ZM141.949 54.7764H140.327V41.6855H141.949V54.7764Z" fill="white"/>
<path d="M72.8626 28.97H65.7839L64.0852 33.9893H61.0859L67.7919 15.416H70.9057L77.6117 33.9893H74.5613L72.8626 28.97ZM66.5171 26.6526H72.1293L69.3608 18.5059H69.2839L66.5171 26.6526Z" fill="white"/>
<path d="M92.1213 27.2201C92.1213 31.4276 89.8689 34.1312 86.4714 34.1312C85.6104 34.1766 84.7541 33.9785 84.0006 33.5595C83.247 33.1406 82.6268 32.5178 82.2109 31.7625H82.1477V38.4685H79.3672V20.4491H82.0571V22.7015H82.1084C82.5433 21.9498 83.1741 21.3301 83.9334 20.9084C84.6927 20.4868 85.5521 20.279 86.4202 20.3072C89.8569 20.3072 92.1213 23.0228 92.1213 27.2201ZM89.2639 27.2201C89.2639 24.4772 87.8489 22.6759 85.687 22.6759C83.5627 22.6759 82.134 24.5165 82.134 27.2201C82.134 29.9476 83.5627 31.7762 85.687 31.7762C87.8489 31.7762 89.2639 29.9869 89.2639 27.2201Z" fill="white"/>
<path d="M107.051 27.2201C107.051 31.4276 104.799 34.1312 101.401 34.1312C100.54 34.1766 99.6838 33.9785 98.9303 33.5595C98.1767 33.1406 97.5565 32.5178 97.1406 31.7625H97.0774V38.4685H94.2969V20.4491H96.9868V22.7015H97.0381C97.473 21.9498 98.1037 21.3301 98.863 20.9084C99.6223 20.4868 100.482 20.279 101.35 20.3072C104.787 20.3072 107.051 23.0228 107.051 27.2201ZM104.194 27.2201C104.194 24.4772 102.779 22.6759 100.617 22.6759C98.4924 22.6759 97.0637 24.5165 97.0637 27.2201C97.0637 29.9476 98.4924 31.7762 100.617 31.7762C102.779 31.7762 104.194 29.9869 104.194 27.2201Z" fill="white"/>
<path d="M116.948 28.8145C117.155 30.655 118.943 31.865 121.388 31.865C123.731 31.865 125.418 30.655 125.418 28.9956C125.418 27.5532 124.401 26.6919 121.993 26.0989L119.587 25.5195C116.176 24.6958 114.593 23.1013 114.593 20.5139C114.593 17.3096 117.386 15.1084 121.351 15.1084C125.276 15.1084 127.966 17.3096 128.057 20.5139H125.251C125.083 18.6597 123.552 17.5403 121.311 17.5403C119.073 17.5403 117.541 18.6733 117.541 20.3208C117.541 21.6333 118.519 22.4058 120.913 22.9971L122.959 23.4995C126.768 24.4002 128.352 25.9314 128.352 28.6487C128.352 32.1231 125.586 34.2986 121.183 34.2986C117.065 34.2986 114.285 32.1743 114.105 28.8145L116.948 28.8145Z" fill="white"/>
<path d="M134.357 17.2446V20.449H136.93V22.6501H134.357V30.115C134.357 31.2737 134.871 31.8137 136.004 31.8137C136.309 31.8091 136.614 31.788 136.917 31.7505V33.938C136.408 34.0327 135.891 34.0756 135.374 34.0662C132.631 34.0662 131.562 33.0374 131.562 30.4106V22.6502H129.594V20.449H131.562V17.2446H134.357Z" fill="white"/>
<path d="M138.453 27.2197C138.453 22.9592 140.962 20.2812 144.875 20.2812C148.801 20.2812 151.298 22.9592 151.298 27.2197C151.298 31.4922 148.815 34.1565 144.875 34.1565C140.936 34.1565 138.453 31.4922 138.453 27.2197ZM148.466 27.2197C148.466 24.2974 147.128 22.573 144.875 22.573C142.623 22.573 141.285 24.3093 141.285 27.2197C141.285 30.154 142.623 31.8647 144.875 31.8647C147.128 31.8647 148.466 30.1541 148.466 27.2197Z" fill="white"/>
<path d="M153.59 20.4488H156.24V22.7525H156.305C156.485 22.0329 156.906 21.3969 157.499 20.9515C158.092 20.5061 158.82 20.2785 159.561 20.3069C159.882 20.3049 160.202 20.3399 160.515 20.4112V23.0106C160.11 22.8872 159.688 22.8306 159.265 22.8431C158.862 22.8266 158.459 22.8977 158.086 23.0514C157.712 23.2052 157.376 23.438 157.101 23.7338C156.826 24.0297 156.619 24.3815 156.492 24.7653C156.366 25.149 156.325 25.5555 156.37 25.9568V33.9891H153.59V20.4488Z" fill="white"/>
<path d="M173.331 30.0122C173.026 31.292 172.266 32.4174 171.194 33.1795C170.122 33.9417 168.809 34.2889 167.5 34.1565C163.563 34.1565 161.117 31.5179 161.117 27.283C161.117 23.0362 163.575 20.2812 167.386 20.2812C171.13 20.2812 173.485 22.855 173.485 26.9617V27.9136H163.923V28.0811C163.879 28.5793 163.941 29.0813 164.106 29.5537C164.271 30.026 164.534 30.4579 164.879 30.8206C165.223 31.1834 165.641 31.4687 166.104 31.6575C166.567 31.8464 167.065 31.9345 167.565 31.916C168.222 31.9777 168.881 31.8257 169.445 31.4827C170.008 31.1397 170.446 30.624 170.693 30.0122H173.331ZM163.935 25.9705H170.706C170.731 25.5225 170.663 25.0743 170.506 24.6538C170.35 24.2334 170.108 23.8498 169.796 23.5271C169.485 23.2045 169.11 22.9497 168.695 22.7788C168.28 22.6078 167.834 22.5244 167.386 22.5337C166.933 22.5309 166.484 22.6178 166.065 22.7894C165.646 22.961 165.265 23.2138 164.944 23.5333C164.624 23.8528 164.369 24.2327 164.196 24.651C164.023 25.0693 163.934 25.5177 163.935 25.9705Z" fill="white"/>
<path d="M184.738 15.729H186.905V33.1042H184.738V24.3338H183.15C182.952 27.4321 181.694 30.1255 179.153 30.1255C176.362 30.1255 175.125 26.8853 175.125 23.4263C175.125 19.9656 176.362 16.792 179.153 16.792C181.64 16.792 182.897 19.3094 183.138 22.3086H184.738L184.738 15.729ZM181.048 23.4263C181.048 20.8748 180.435 18.9265 179.153 18.9265C177.906 18.9265 177.336 20.8748 177.336 23.4263C177.336 25.988 177.906 27.9141 179.153 27.9141C180.435 27.9141 181.048 25.988 181.048 23.4263ZM190.692 15.3564V33.9792H188.525V15.3564H190.692Z" fill="white"/>
<path d="M200.489 19.7246C200.412 21.3656 200.804 22.9945 201.618 24.4213C202.433 25.848 203.636 27.0138 205.088 27.7825L203.741 29.5239C201.751 28.3924 200.198 26.6272 199.328 24.5098C198.54 26.8145 196.956 28.7629 194.861 30.0059L193.438 28.3191C194.921 27.4632 196.141 26.2161 196.964 24.714C197.786 23.2119 198.181 21.5125 198.103 19.8015V16.9219H200.489L200.489 19.7246ZM209.215 33.9793H206.894V23.7424H203.16V21.7839H206.894V15.3564H209.215V33.9793Z" fill="white"/>
<path d="M44.1844 35.5264C44.2032 34.0658 44.5912 32.6336 45.3122 31.3632C46.0332 30.0928 47.0639 29.0254 48.3083 28.2603C47.5178 27.1313 46.4749 26.2021 45.2624 25.5467C44.05 24.8912 42.7014 24.5275 41.3238 24.4844C38.3851 24.1759 35.5362 26.2428 34.0387 26.2428C32.5123 26.2428 30.2066 24.515 27.7239 24.5661C26.1179 24.618 24.5528 25.085 23.181 25.9216C21.8093 26.7582 20.6776 27.9359 19.8962 29.3399C16.5117 35.1996 19.0363 43.8114 22.2783 48.548C23.9004 50.8674 25.7962 53.4582 28.2767 53.3663C30.7041 53.2656 31.6106 51.8184 34.5407 51.8184C37.4435 51.8184 38.294 53.3663 40.8249 53.3079C43.4296 53.2656 45.0706 50.9782 46.6358 48.6369C47.8013 46.9842 48.6981 45.1577 49.293 43.225C47.7798 42.585 46.4884 41.5136 45.58 40.1446C44.6715 38.7756 44.1861 37.1695 44.1844 35.5264Z" fill="white"/>
<path d="M39.408 21.3692C40.8282 19.6643 41.5279 17.473 41.3584 15.2606C39.1887 15.4885 37.1845 16.5255 35.7452 18.1649C35.0414 18.9659 34.5024 19.8976 34.159 20.907C33.8156 21.9163 33.6745 22.9834 33.7437 24.0474C34.8289 24.0585 35.9026 23.8233 36.8837 23.3594C37.8649 22.8955 38.728 22.215 39.408 21.3692Z" fill="white"/>
</svg>
