<svg width="22" height="22" viewBox="0 0 22 22" fill="none" xmlns="http://www.w3.org/2000/svg">
<rect x="0.333496" y="0.166672" width="21.6667" height="21.6667" rx="10.8333" fill="#89BAFF"/>
<path d="M9 14.0117L6.49389 11.5056C6.35885 11.3705 6.17569 11.2947 5.98472 11.2947C5.79374 11.2947 5.61059 11.3705 5.47555 11.5056C5.34051 11.6406 5.26465 11.8238 5.26465 12.0147C5.26465 12.1093 5.28327 12.2029 5.31946 12.2903C5.35565 12.3777 5.40869 12.457 5.47555 12.5239L8.49444 15.5428C8.77611 15.8245 9.23111 15.8245 9.51277 15.5428L17.1539 7.90168C17.2889 7.76664 17.3648 7.58348 17.3648 7.39251C17.3648 7.20154 17.2889 7.01838 17.1539 6.88334C17.0188 6.7483 16.8357 6.67244 16.6447 6.67244C16.4537 6.67244 16.2706 6.7483 16.1356 6.88334L9 14.0117Z" fill="#427ABF"/>
</svg>
