<svg width="170" height="372" viewBox="0 0 170 372" fill="none" xmlns="http://www.w3.org/2000/svg">
<g opacity="0.5" filter="url(#filter0_d_11_676)">
<path d="M7.13686 164.034H56.9705V367.459H-8.2324L7.13686 164.034Z" fill="url(#paint0_linear_11_676)"/>
<path d="M-8.88532 367.459H56.7833V382.929H-20.9944C-22.3916 382.82 -24.9066 381.547 -23.7888 377.334C-22.6711 373.12 -13.3874 368.995 -8.88532 367.459Z" fill="url(#paint1_linear_11_676)"/>
<path d="M119.845 164.034H70.0109V367.459H135.214L119.845 164.034Z" fill="url(#paint2_linear_11_676)"/>
<path d="M135.867 367.459H70.1981V382.929H147.976C149.373 382.82 151.888 381.547 150.77 377.334C149.653 373.12 140.369 368.995 135.867 367.459Z" fill="url(#paint3_linear_11_676)"/>
<path d="M116.546 136.423L129.515 221.022C130.552 227.791 125.314 233.894 118.466 233.894H7.58345C0.735245 233.894 -4.50281 227.791 -3.4651 221.022L9.50388 136.423C12.9586 113.887 35.3008 96.4635 63.0248 93.6423C90.7487 96.4635 113.091 113.887 116.546 136.423Z" fill="url(#paint4_linear_11_676)"/>
<path opacity="0.5" d="M99.5274 149.042L103.087 152.601H103.083C103.732 153.251 103.732 154.304 103.083 154.953L99.5235 158.513C99.1998 158.838 98.7727 159 98.3475 159C97.9223 159 97.4972 158.836 97.1715 158.513C96.522 157.863 96.522 156.81 97.1715 156.16L97.8911 155.441H84.8958C81.9821 155.441 79.6983 153.202 79.6983 150.45C79.6983 147.698 81.9372 145.459 84.6891 145.459H91.0314C91.948 145.459 92.695 144.712 92.695 143.796C92.695 142.879 91.948 142.132 91.0314 142.132H77.6558L78.3754 142.852C79.0249 143.501 79.0249 144.554 78.3754 145.204C78.0517 145.529 77.6246 145.691 77.1994 145.691C76.7743 145.691 76.3491 145.529 76.0234 145.204L72.4641 141.644C71.8147 140.995 71.8147 139.942 72.4641 139.292L76.0234 135.733C76.6729 135.084 77.726 135.084 78.3754 135.733C79.0249 136.383 79.0249 137.436 78.3754 138.085L77.6558 138.805H91.0314C93.7833 138.805 96.0222 141.044 96.0222 143.796C96.0222 146.548 93.7833 148.786 91.0314 148.786H84.6891C83.7725 148.786 83.0255 149.487 83.0255 150.45C83.0255 151.413 83.8134 152.114 84.8978 152.114H97.895L97.1754 151.394C96.5259 150.745 96.5259 149.691 97.1754 149.042C97.8248 148.392 98.878 148.392 99.5274 149.042Z" fill="white"/>
<circle cx="63.4903" cy="62.5037" r="47.505" fill="url(#paint5_radial_11_676)"/>
<path d="M42.998 71.8183C48.7359 84.2379 62.5589 87.6532 70.0107 87.6532C81.1883 87.6532 90.0373 84.3931 95.1604 71.8183C95.1604 71.8183 85.3799 69.9553 70.0107 69.9553C54.6414 69.9553 42.998 71.8183 42.998 71.8183Z" fill="#7198C9"/>
<g opacity="0.5">
<path d="M-0.966286 199.056L1.45913 191.78C2.21158 189.523 4.32408 188 6.70354 188H28.2179C30.5973 188 32.7098 189.523 33.4623 191.78L35.8877 199.056" stroke="url(#paint6_linear_11_676)" stroke-width="5.5281"/>
<rect width="83.8428" height="51.5956" rx="7.3708" transform="matrix(-1 0 0 1 59.8428 194.448)" fill="#748DAB"/>
<path d="M59.8428 201.819C59.8428 197.748 56.5428 194.448 52.472 194.448H-16.6292C-20.7 194.448 -24 197.748 -24 201.819V222.088C-24 222.088 -9.71911 233.145 17.9214 233.145C45.5619 233.145 59.8428 222.088 59.8428 222.088V201.819Z" fill="url(#paint7_linear_11_676)"/>
<rect width="11.0562" height="8.29215" rx="2.76405" transform="matrix(-1 0 0 1 22.9883 227.617)" fill="url(#paint8_linear_11_676)"/>
</g>
</g>
<defs>
<filter id="filter0_d_11_676" x="-43.6294" y="0.0952623" width="214.848" height="405.495" filterUnits="userSpaceOnUse" color-interpolation-filters="sRGB">
<feFlood flood-opacity="0" result="BackgroundImageFix"/>
<feColorMatrix in="SourceAlpha" type="matrix" values="0 0 0 0 0 0 0 0 0 0 0 0 0 0 0 0 0 0 127 0" result="hardAlpha"/>
<feOffset dy="3.72588"/>
<feGaussianBlur stdDeviation="9.3147"/>
<feComposite in2="hardAlpha" operator="out"/>
<feColorMatrix type="matrix" values="0 0 0 0 0.0303701 0 0 0 0 0.227807 0 0 0 0 0.471077 0 0 0 0.05 0"/>
<feBlend mode="normal" in2="BackgroundImageFix" result="effect1_dropShadow_11_676"/>
<feBlend mode="normal" in="SourceGraphic" in2="effect1_dropShadow_11_676" result="shape"/>
</filter>
<linearGradient id="paint0_linear_11_676" x1="29.1962" y1="167.272" x2="29.8064" y2="385.865" gradientUnits="userSpaceOnUse">
<stop offset="0.00568989" stop-color="#9EB6D3"/>
<stop offset="1" stop-color="#608DC5"/>
</linearGradient>
<linearGradient id="paint1_linear_11_676" x1="29.1962" y1="167.272" x2="29.8064" y2="385.865" gradientUnits="userSpaceOnUse">
<stop offset="0.00568989" stop-color="#9EB6D3"/>
<stop offset="1" stop-color="#608DC5"/>
</linearGradient>
<linearGradient id="paint2_linear_11_676" x1="97.7853" y1="167.272" x2="97.1751" y2="385.865" gradientUnits="userSpaceOnUse">
<stop offset="0.00568989" stop-color="#9EB6D3"/>
<stop offset="1" stop-color="#608DC5"/>
</linearGradient>
<linearGradient id="paint3_linear_11_676" x1="97.7853" y1="167.272" x2="97.1751" y2="385.865" gradientUnits="userSpaceOnUse">
<stop offset="0.00568989" stop-color="#9EB6D3"/>
<stop offset="1" stop-color="#608DC5"/>
</linearGradient>
<linearGradient id="paint4_linear_11_676" x1="63.0248" y1="233.894" x2="63.0248" y2="93.6423" gradientUnits="userSpaceOnUse">
<stop stop-color="#9BBCE6"/>
<stop offset="0.8" stop-color="#B2CDEF"/>
</linearGradient>
<radialGradient id="paint5_radial_11_676" cx="0" cy="0" r="1" gradientUnits="userSpaceOnUse" gradientTransform="translate(90.7439 25.4703) rotate(107.868) scale(88.8229)">
<stop stop-color="#C6DFFF"/>
<stop offset="1" stop-color="#DEECFF"/>
</radialGradient>
<linearGradient id="paint6_linear_11_676" x1="17.4607" y1="195.371" x2="17.4607" y2="184.315" gradientUnits="userSpaceOnUse">
<stop stop-color="#748DAB"/>
<stop offset="1" stop-color="#92A8C4"/>
</linearGradient>
<linearGradient id="paint7_linear_11_676" x1="17.9214" y1="194.448" x2="17.9214" y2="233.145" gradientUnits="userSpaceOnUse">
<stop offset="0.12" stop-color="#879DB9"/>
<stop offset="0.715" stop-color="#92A8C4"/>
</linearGradient>
<linearGradient id="paint8_linear_11_676" x1="5.5281" y1="8.29215" x2="5.5281" y2="0" gradientUnits="userSpaceOnUse">
<stop stop-color="#C2CCD9"/>
<stop offset="1" stop-color="#ADB7C2"/>
</linearGradient>
</defs>
</svg>
