<svg width="388" height="803" viewBox="0 0 388 803" fill="none" xmlns="http://www.w3.org/2000/svg">
<rect x="382.839" y="182.198" width="4.4" height="66.4" rx="1.2" fill="url(#paint0_linear_754_4030)" stroke="#E6E6E6" stroke-width="0.4"/>
<rect x="0.839062" y="223.198" width="4.4" height="56.4" rx="1.2" fill="url(#paint1_linear_754_4030)" stroke="#E6E6E6" stroke-width="0.4"/>
<rect x="0.839062" y="155.198" width="4.4" height="56.4" rx="1.2" fill="url(#paint2_linear_754_4030)" stroke="#E6E6E6" stroke-width="0.4"/>
<mask id="path-4-outside-1_754_4030" maskUnits="userSpaceOnUse" x="3.03906" y="0.398438" width="382" height="802" fill="black">
<rect fill="white" x="3.03906" y="0.398438" width="382" height="802"/>
<path fill-rule="evenodd" clip-rule="evenodd" d="M46.0391 1.39844C22.8431 1.39844 4.03906 20.2025 4.03906 43.3984V759.398C4.03906 782.594 22.8431 801.398 46.0391 801.398H342.039C365.235 801.398 384.039 782.594 384.039 759.398V43.3984C384.039 20.2025 365.235 1.39844 342.039 1.39844H46.0391ZM50.0391 11.3984C30.1568 11.3984 14.0391 27.5162 14.0391 47.3984V755.398C14.0391 775.281 30.1568 791.398 50.0391 791.398H338.039C357.921 791.398 374.039 775.281 374.039 755.398V47.3984C374.039 27.5162 357.921 11.3984 338.039 11.3984H50.0391Z"/>
</mask>
<path fill-rule="evenodd" clip-rule="evenodd" d="M46.0391 1.39844C22.8431 1.39844 4.03906 20.2025 4.03906 43.3984V759.398C4.03906 782.594 22.8431 801.398 46.0391 801.398H342.039C365.235 801.398 384.039 782.594 384.039 759.398V43.3984C384.039 20.2025 365.235 1.39844 342.039 1.39844H46.0391ZM50.0391 11.3984C30.1568 11.3984 14.0391 27.5162 14.0391 47.3984V755.398C14.0391 775.281 30.1568 791.398 50.0391 791.398H338.039C357.921 791.398 374.039 775.281 374.039 755.398V47.3984C374.039 27.5162 357.921 11.3984 338.039 11.3984H50.0391Z" fill="#EBEBEB"/>
<path d="M5.03906 43.3984C5.03906 20.7548 23.3954 2.39844 46.0391 2.39844V0.398438C22.2908 0.398438 3.03906 19.6502 3.03906 43.3984H5.03906ZM5.03906 759.398V43.3984H3.03906V759.398H5.03906ZM46.0391 800.398C23.3954 800.398 5.03906 782.042 5.03906 759.398H3.03906C3.03906 783.147 22.2908 802.398 46.0391 802.398V800.398ZM342.039 800.398H46.0391V802.398H342.039V800.398ZM383.039 759.398C383.039 782.042 364.683 800.398 342.039 800.398V802.398C365.787 802.398 385.039 783.147 385.039 759.398H383.039ZM383.039 43.3984V759.398H385.039V43.3984H383.039ZM342.039 2.39844C364.683 2.39844 383.039 20.7548 383.039 43.3984H385.039C385.039 19.6502 365.787 0.398438 342.039 0.398438V2.39844ZM46.0391 2.39844H342.039V0.398438H46.0391V2.39844ZM15.0391 47.3984C15.0391 28.0685 30.7091 12.3984 50.0391 12.3984V10.3984C29.6045 10.3984 13.0391 26.9639 13.0391 47.3984H15.0391ZM15.0391 755.398V47.3984H13.0391V755.398H15.0391ZM50.0391 790.398C30.7091 790.398 15.0391 774.728 15.0391 755.398H13.0391C13.0391 775.833 29.6045 792.398 50.0391 792.398V790.398ZM338.039 790.398H50.0391V792.398H338.039V790.398ZM373.039 755.398C373.039 774.728 357.369 790.398 338.039 790.398V792.398C358.474 792.398 375.039 775.833 375.039 755.398H373.039ZM373.039 47.3984V755.398H375.039V47.3984H373.039ZM338.039 12.3984C357.369 12.3984 373.039 28.0685 373.039 47.3984H375.039C375.039 26.9639 358.474 10.3984 338.039 10.3984V12.3984ZM50.0391 12.3984H338.039V10.3984H50.0391V12.3984Z" fill="#DADADA" mask="url(#path-4-outside-1_754_4030)"/>
<rect x="6.03906" y="3.39844" width="376" height="796" rx="40" stroke="#E6E6E6" stroke-width="4"/>
<mask id="path-7-inside-2_754_4030" fill="white">
<path d="M152.039 5.39844H236.039C236.039 6.50301 235.144 7.39844 234.039 7.39844H154.039C152.934 7.39844 152.039 6.50301 152.039 5.39844Z"/>
</mask>
<path d="M152.039 5.39844H236.039C236.039 6.50301 235.144 7.39844 234.039 7.39844H154.039C152.934 7.39844 152.039 6.50301 152.039 5.39844Z" fill="url(#paint3_linear_754_4030)"/>
<path d="M152.039 5.39844H236.039H152.039ZM236.039 5.39844C236.039 6.72392 234.965 7.79844 233.639 7.79844H154.439C153.114 7.79844 152.039 6.72392 152.039 5.39844V5.39844C152.039 6.28209 152.934 6.99844 154.039 6.99844H234.039C235.144 6.99844 236.039 6.28209 236.039 5.39844V5.39844ZM152.039 7.39844V5.39844V7.39844ZM236.039 5.39844V7.39844V5.39844Z" fill="#F4F4F4" mask="url(#path-7-inside-2_754_4030)"/>
<g filter="url(#filter0_b_754_4030)">
<rect x="134.039" y="778.398" width="120" height="4" rx="2" fill="#BABABA" fill-opacity="0.7"/>
</g>
<mask id="path-10-inside-3_754_4030" fill="white">
<path d="M185.039 39.3984C185.039 34.4279 189.069 30.3984 194.039 30.3984C199.01 30.3984 203.039 34.4279 203.039 39.3984C203.039 44.369 199.01 48.3984 194.039 48.3984C189.069 48.3984 185.039 44.369 185.039 39.3984Z"/>
</mask>
<path d="M185.039 39.3984C185.039 34.4279 189.069 30.3984 194.039 30.3984C199.01 30.3984 203.039 34.4279 203.039 39.3984C203.039 44.369 199.01 48.3984 194.039 48.3984C189.069 48.3984 185.039 44.369 185.039 39.3984Z" fill="url(#paint4_linear_754_4030)"/>
<path d="M185.039 30.3984H203.039H185.039ZM203.039 39.7984C203.039 44.769 199.01 48.7984 194.039 48.7984C189.068 48.7984 185.039 44.769 185.039 39.7984V39.3984C185.039 44.1481 189.068 47.9984 194.039 47.9984C199.01 47.9984 203.039 44.1481 203.039 39.3984V39.7984ZM185.039 48.3984V30.3984V48.3984ZM203.039 30.3984V48.3984V30.3984Z" fill="#EEEEEE" fill-opacity="0.933333" mask="url(#path-10-inside-3_754_4030)"/>
<defs>
<filter id="filter0_b_754_4030" x="131.039" y="775.398" width="126" height="10" filterUnits="userSpaceOnUse" color-interpolation-filters="sRGB">
<feFlood flood-opacity="0" result="BackgroundImageFix"/>
<feGaussianBlur in="BackgroundImageFix" stdDeviation="1.5"/>
<feComposite in2="SourceAlpha" operator="in" result="effect1_backgroundBlur_754_4030"/>
<feBlend mode="normal" in="SourceGraphic" in2="effect1_backgroundBlur_754_4030" result="shape"/>
</filter>
<linearGradient id="paint0_linear_754_4030" x1="385.039" y1="182.398" x2="385.039" y2="248.398" gradientUnits="userSpaceOnUse">
<stop stop-color="#E7E7E7"/>
<stop offset="0.255" stop-color="#DADADA"/>
<stop offset="0.75" stop-color="#DADADA"/>
<stop offset="1" stop-color="#E1E1E1"/>
</linearGradient>
<linearGradient id="paint1_linear_754_4030" x1="3.03906" y1="223.398" x2="3.03906" y2="279.398" gradientUnits="userSpaceOnUse">
<stop stop-color="#E7E7E7"/>
<stop offset="0.255" stop-color="#DADADA"/>
<stop offset="0.75" stop-color="#DADADA"/>
<stop offset="1" stop-color="#E1E1E1"/>
</linearGradient>
<linearGradient id="paint2_linear_754_4030" x1="3.03906" y1="155.398" x2="3.03906" y2="211.398" gradientUnits="userSpaceOnUse">
<stop stop-color="#E7E7E7"/>
<stop offset="0.255" stop-color="#DADADA"/>
<stop offset="0.75" stop-color="#DADADA"/>
<stop offset="1" stop-color="#E1E1E1"/>
</linearGradient>
<linearGradient id="paint3_linear_754_4030" x1="194.039" y1="7.39844" x2="194.039" y2="5.39844" gradientUnits="userSpaceOnUse">
<stop stop-color="#E7E7E7"/>
<stop offset="1" stop-color="#AAAAAA"/>
</linearGradient>
<linearGradient id="paint4_linear_754_4030" x1="194.039" y1="30.3984" x2="194.039" y2="48.3984" gradientUnits="userSpaceOnUse">
<stop stop-color="#F0F4F9"/>
<stop offset="0.5" stop-color="#F3F3F3"/>
<stop offset="1" stop-color="#B9B9B9"/>
</linearGradient>
</defs>
</svg>
