<svg width="52" height="52" viewBox="0 0 52 52" fill="none" xmlns="http://www.w3.org/2000/svg">
<circle cx="26" cy="26" r="26" fill="#FFF8F8"/>
<mask id="mask0_58_504" style="mask-type:alpha" maskUnits="userSpaceOnUse" x="0" y="0" width="52" height="52">
<circle cx="26" cy="26" r="26" fill="#D9D9D9"/>
</mask>
<g mask="url(#mask0_58_504)">
<path d="M40.6329 43.8016L44.1703 66.8766C44.4533 68.7229 43.0246 70.3873 41.1567 70.3873H10.9128C9.04496 70.3873 7.61625 68.7229 7.89929 66.8766L11.4367 43.8016C12.3789 37.6549 18.4729 32.9024 26.0348 32.1329C33.5967 32.9024 39.6906 37.6549 40.6329 43.8016Z" fill="url(#paint0_linear_58_504)"/>
<circle cx="26.1609" cy="23.6399" r="12.9573" fill="url(#paint1_radial_58_504)"/>
<path d="M18.8833 26.1807C20.4483 29.5683 24.2186 30.4998 26.2512 30.4998C29.2999 30.4998 31.7135 29.6106 33.1109 26.1807C33.1109 26.1807 30.4432 25.6726 26.2512 25.6726C22.0591 25.6726 18.8833 26.1807 18.8833 26.1807Z" fill="#DD7777" fill-opacity="0.56"/>
</g>
<defs>
<linearGradient id="paint0_linear_58_504" x1="26.0348" y1="70.3873" x2="26.0348" y2="32.1329" gradientUnits="userSpaceOnUse">
<stop stop-color="#F2C3C3"/>
<stop offset="0.8" stop-color="#F5D8D8"/>
</linearGradient>
<radialGradient id="paint1_radial_58_504" cx="0" cy="0" r="1" gradientUnits="userSpaceOnUse" gradientTransform="translate(33.5944 13.5388) rotate(107.868) scale(24.227)">
<stop stop-color="#F6D3D3"/>
<stop offset="1" stop-color="#FAE3E3"/>
</radialGradient>
</defs>
</svg>
