<svg width="12" height="12" viewBox="0 0 12 12" fill="none" xmlns="http://www.w3.org/2000/svg">
<path d="M1.21614 11.9422C1.03884 11.8494 0.950195 11.6172 0.950195 11.3851C0.950195 11.3386 0.950195 11.2458 0.950195 11.1994C0.950195 7.7638 0.950195 4.32819 0.950195 0.939034C0.950195 0.753324 0.994516 0.614061 1.03884 0.42835C1.08318 0.335481 1.17182 0.242639 1.26049 0.149797C3.16649 2.14614 5.02816 4.14248 6.88984 6.13885C4.98384 7.99591 3.12217 9.94586 1.21614 11.9422Z" fill="#2362A3"/>
<path d="M8.75121 4.09675C8.21929 4.65388 7.64305 5.21099 7.11116 5.81454C5.33812 3.91104 3.52076 2.00754 1.74772 0.104038C1.74772 0.104038 1.74772 0.0576172 1.79204 0.0576172C4.097 1.40399 6.40193 2.75038 8.75121 4.09675Z" fill="#2362A3"/>
<path d="M1.74772 11.9427C3.52076 10.0856 5.33812 8.22858 7.11116 6.3715C7.59873 6.88219 8.13065 7.3929 8.70689 7.95001C6.40193 9.2964 4.097 10.6428 1.79204 11.9427H1.74772Z" fill="#2362A3"/>
<path d="M9.01765 7.76439C8.44141 7.20729 7.90951 6.65016 7.33328 6.09305C7.90951 5.4895 8.48575 4.88594 9.06197 4.28239C9.23927 4.37523 9.41658 4.4681 9.59389 4.60736C10.0371 4.88594 10.5247 5.11808 10.968 5.39663C11.101 5.44305 11.1896 5.53592 11.2783 5.67518C11.4556 5.90731 11.4556 6.13947 11.2783 6.3716C11.1896 6.46445 11.101 6.55731 10.968 6.60373C10.3474 7.02158 9.68255 7.393 9.01765 7.76439Z" fill="#2362A3"/>
</svg>
