<svg width="151" height="36" viewBox="0 0 151 36" fill="none" xmlns="http://www.w3.org/2000/svg">
<path opacity="0.2" d="M143.437 17.2485L149.84 23.6518H149.833C151.002 24.8202 151.002 26.7148 149.833 27.8832L143.43 34.2865C142.847 34.8724 142.079 35.1637 141.314 35.1637C140.549 35.1637 139.784 34.8689 139.198 34.2865C138.03 33.1181 138.03 31.2234 139.198 30.0551L140.493 28.7604L57.2125 29.9288C51.9706 29.9288 47.862 25.9008 47.862 20.9501C47.862 15.9994 51.8899 11.9715 56.8406 11.9715H68.2508C69.8998 11.9715 71.2436 10.6277 71.2436 8.97863C71.2436 7.32957 69.8998 5.98575 68.2508 5.98575H0V0H68.2508C73.2015 0 77.2294 4.02793 77.2294 8.97863C77.2294 13.9293 73.2015 17.9573 68.2508 17.9573H56.8406C55.1916 17.9573 53.8478 19.2169 53.8478 20.9501C53.8478 22.6834 55.2652 23.943 57.216 23.943L140.5 22.7746L139.205 21.4799C138.037 20.3115 138.037 18.4169 139.205 17.2485C140.374 16.0801 142.268 16.0801 143.437 17.2485Z" fill="#427ABF"/>
</svg>
