<svg width="360" height="50" viewBox="0 0 360 50" fill="none" xmlns="http://www.w3.org/2000/svg">
<path d="M47.0739 20.2954C44.4758 20.2954 42.6247 22.0718 42.6247 24.5039V24.5205C42.6247 26.7949 44.235 28.4717 46.5344 28.4717C48.1779 28.4717 49.2238 27.6333 49.6638 26.687H49.8298C49.8298 26.7783 49.8215 26.8696 49.8215 26.9609C49.7302 29.252 48.925 31.1113 47.0241 31.1113C45.9699 31.1113 45.2311 30.5635 44.9157 29.7251L44.8908 29.6421H42.7824L42.799 29.7334C43.1808 31.5679 44.8244 32.8711 47.0241 32.8711C50.0373 32.8711 51.8552 30.4805 51.8552 26.4463V26.4297C51.8552 22.1133 49.6306 20.2954 47.0739 20.2954ZM47.0656 26.8281C45.7043 26.8281 44.7165 25.832 44.7165 24.4458V24.4292C44.7165 23.0928 45.7707 22.0386 47.0905 22.0386C48.4186 22.0386 49.4562 23.1094 49.4562 24.479V24.4956C49.4562 25.8486 48.4186 26.8281 47.0656 26.8281ZM55.2157 24.811C55.9794 24.811 56.5355 24.23 56.5355 23.4995C56.5355 22.7607 55.9794 22.188 55.2157 22.188C54.4603 22.188 53.8959 22.7607 53.8959 23.4995C53.8959 24.23 54.4603 24.811 55.2157 24.811ZM55.2157 30.9702C55.9794 30.9702 56.5355 30.3975 56.5355 29.6587C56.5355 28.9199 55.9794 28.3472 55.2157 28.3472C54.4603 28.3472 53.8959 28.9199 53.8959 29.6587C53.8959 30.3975 54.4603 30.9702 55.2157 30.9702ZM64.3868 32.5723H66.4371V30.2729H68.0475V28.5049H66.4371V20.5942H63.4073C61.7804 23.0679 60.0787 25.8237 58.5265 28.5215V30.2729H64.3868V32.5723ZM60.5187 28.5547V28.4302C61.6808 26.3965 63.067 24.1802 64.2955 22.3042H64.42V28.5547H60.5187ZM72.6033 32.5723H74.7449V20.5942H72.6116L69.4822 22.7939V24.811L72.4622 22.7026H72.6033V32.5723Z" fill="#BEC6D1"/>
<path d="M272.033 21.5259C272.033 20.9779 272.477 20.5336 273.025 20.5336H274.018C274.566 20.5336 275.01 20.9779 275.01 21.5259V29.4649C275.01 30.0129 274.566 30.4572 274.018 30.4572H273.025C272.477 30.4572 272.033 30.0129 272.033 29.4649V21.5259Z" fill="#BEC6D1"/>
<path d="M276.995 19.5412C276.995 18.9931 277.439 18.5488 277.987 18.5488H278.98C279.528 18.5488 279.972 18.9931 279.972 19.5412V29.4649C279.972 30.0129 279.528 30.4572 278.98 30.4572H277.987C277.439 30.4572 276.995 30.0129 276.995 29.4649V19.5412Z" fill="#BEC6D1"/>
<path d="M267.071 24.9992C267.071 24.4511 267.516 24.0068 268.064 24.0068H269.056C269.604 24.0068 270.048 24.4511 270.048 24.9992V29.4649C270.048 30.0129 269.604 30.4572 269.056 30.4572H268.064C267.516 30.4572 267.071 30.0129 267.071 29.4649V24.9992Z" fill="#BEC6D1"/>
<path d="M262.109 27.4801C262.109 26.9321 262.554 26.4878 263.102 26.4878H264.094C264.642 26.4878 265.086 26.9321 265.086 27.4801V29.4649C265.086 30.0129 264.642 30.4572 264.094 30.4572H263.102C262.554 30.4572 262.109 30.0129 262.109 29.4649V27.4801Z" fill="#BEC6D1"/>
<path fill-rule="evenodd" clip-rule="evenodd" d="M296.346 21.1166C298.793 21.1167 301.148 22.0767 302.922 23.7983C303.055 23.9312 303.269 23.9295 303.4 23.7945L304.677 22.479C304.744 22.4106 304.781 22.3178 304.78 22.2213C304.78 22.1248 304.742 22.0326 304.674 21.9649C300.018 17.4101 292.673 17.4101 288.017 21.9649C287.949 22.0325 287.911 22.1248 287.91 22.2213C287.91 22.3178 287.947 22.4105 288.013 22.479L289.291 23.7945C289.422 23.9297 289.636 23.9314 289.769 23.7983C291.543 22.0766 293.898 21.1166 296.346 21.1166ZM296.381 25.0879C297.726 25.0878 299.023 25.5981 300.02 26.5195C300.154 26.6503 300.367 26.6474 300.498 26.5131L301.774 25.1976C301.841 25.1286 301.878 25.035 301.877 24.9378C301.876 24.8405 301.837 24.7477 301.769 24.6801C298.733 21.7977 294.032 21.7977 290.996 24.6801C290.927 24.7477 290.888 24.8406 290.887 24.9379C290.886 25.0352 290.924 25.1287 290.991 25.1976L292.266 26.5131C292.398 26.6474 292.61 26.6503 292.745 26.5195C293.741 25.5987 295.037 25.0885 296.381 25.0879ZM298.975 27.6555C298.977 27.753 298.939 27.8471 298.871 27.9154L296.664 30.1881C296.6 30.2549 296.512 30.2925 296.42 30.2925C296.328 30.2925 296.239 30.2549 296.175 30.1881L293.968 27.9154C293.9 27.847 293.862 27.753 293.864 27.6554C293.866 27.5579 293.908 27.4655 293.979 27.4001C295.388 26.1836 297.451 26.1836 298.86 27.4001C298.931 27.4656 298.973 27.558 298.975 27.6555Z" fill="#BEC6D1"/>
<path opacity="0.35" d="M313.324 21.571C313.324 19.6528 314.879 18.0977 316.798 18.0977H333.668C335.586 18.0977 337.141 19.6528 337.141 21.571V26.5329C337.141 28.4511 335.586 30.0061 333.668 30.0061H316.798C314.879 30.0061 313.324 28.4511 313.324 26.5329V21.571Z" stroke="#BEC6D1" stroke-width="0.992366"/>
<path opacity="0.4" d="M338.629 22.5645V26.7526C339.471 26.3979 340.019 25.5727 340.019 24.6585C340.019 23.7443 339.471 22.9192 338.629 22.5645Z" fill="#BEC6D1"/>
<path d="M314.812 21.5707C314.812 20.4745 315.701 19.5859 316.797 19.5859H333.667C334.764 19.5859 335.652 20.4745 335.652 21.5707V26.5325C335.652 27.6286 334.764 28.5172 333.667 28.5172H316.797C315.701 28.5172 314.812 27.6286 314.812 26.5325V21.5707Z" fill="#BEC6D1"/>
</svg>
