<svg width="531" height="36" viewBox="0 0 531 36" fill="none" xmlns="http://www.w3.org/2000/svg">
<path opacity="0.2" d="M523.603 17.2483L530.006 23.6515H529.999C531.168 24.8199 531.168 26.7146 529.999 27.883L523.596 34.2862C523.014 34.8722 522.245 35.1634 521.48 35.1634C520.715 35.1634 519.951 34.8687 519.365 34.2862C518.196 33.1179 518.196 31.2232 519.365 30.0548L520.659 28.7601L123.213 29.9285C117.971 29.9285 113.862 25.9006 113.862 20.9499C113.862 15.9992 117.89 11.9713 122.841 11.9713H134.251C135.9 11.9713 137.244 10.6274 137.244 8.97839C137.244 7.32932 135.9 5.98551 134.251 5.98551H0V-0.000244141H134.251C139.201 -0.000244141 143.229 4.02768 143.229 8.97839C143.229 13.9291 139.201 17.957 134.251 17.957H122.841C121.192 17.957 119.848 19.2166 119.848 20.9499C119.848 22.6832 121.265 23.9428 123.216 23.9428L520.666 22.7744L519.372 21.4797C518.203 20.3113 518.203 18.4166 519.372 17.2483C520.54 16.0799 522.435 16.0799 523.603 17.2483Z" fill="#427ABF"/>
</svg>
