<svg width="77" height="22" viewBox="0 0 77 22" fill="none" xmlns="http://www.w3.org/2000/svg">
<path fill-rule="evenodd" clip-rule="evenodd" d="M61.8956 15.5718C62.5468 15.5718 63.0654 15.0427 63.0654 14.4055C63.0654 13.7682 62.5348 13.2392 61.8956 13.2392C61.2564 13.2392 60.7258 13.7682 60.7258 14.4055C60.7258 15.0427 61.2564 15.5718 61.8956 15.5718ZM61.8956 16.9184C63.2825 16.9184 64.404 15.8002 64.404 14.4175C64.404 13.0348 63.2704 11.9166 61.8956 11.9166C60.5208 11.9166 59.3871 13.0348 59.3871 14.4175C59.3871 15.8002 60.5208 16.9184 61.8956 16.9184ZM72.3032 10.5579C71.5555 10.6421 70.7957 10.6661 70.036 10.6661C69.6862 10.6661 69.3244 10.6781 68.9747 10.6541C68.625 10.63 68.6008 10.582 68.4561 10.4377C68.3114 10.2934 68.4441 10.4256 68.432 10.4136C68.2391 10.2212 68.1908 9.90863 68.1908 9.57197V6.30153C68.1908 6.07308 68.2752 5.86867 68.4561 5.73641C68.6129 5.64022 68.7938 5.58011 68.9868 5.58011C69.1797 5.58011 69.3606 5.6282 69.5174 5.73641C69.7104 5.86867 69.7827 6.07308 69.7827 6.30153V9.21126H69.8068C69.8068 9.21126 70.4098 9.21126 70.8802 9.18721C71.2781 9.17519 71.9294 9.12709 72.2791 9.09102C72.4118 9.06697 72.8821 9.00685 73.1474 8.98281C73.3404 8.95876 73.5212 9.00685 73.6539 9.15114C73.7745 9.27137 73.8469 9.42768 73.871 9.59602C73.8951 9.77637 73.871 9.93268 73.7866 10.089C73.7021 10.2814 73.473 10.3655 73.2921 10.4136C72.9665 10.4858 72.6409 10.5339 72.3153 10.5699L72.3032 10.5579ZM70.5907 15.8363C70.3978 15.6439 70.3495 15.3313 70.3495 14.9946V12.65C70.3495 12.3013 70.4098 12.0008 70.5907 11.8084C70.7957 11.616 71.0972 11.5679 71.459 11.5679H74.7755C75.1252 11.5679 75.4388 11.628 75.6317 11.8084C75.8367 12.0008 75.897 12.3134 75.897 12.65V14.9946C75.897 15.3433 75.8247 15.6439 75.6317 15.8363C75.4388 16.0287 75.0167 16.0768 74.6669 16.0768H71.3505C70.9887 16.0768 70.7957 16.0167 70.6028 15.8363H70.5907ZM61.968 10.8585C61.8715 10.8946 61.7629 10.8946 61.6544 10.8946C61.5459 10.8705 61.4253 10.8224 61.3288 10.7623C61.2082 10.6781 61.0635 10.5699 60.8705 10.4377L60.2916 9.96875C60.0384 9.76435 59.8575 9.59602 59.7369 9.46376C59.7369 9.4878 59.7007 9.49983 59.6886 9.52387C59.568 9.66816 59.3751 9.84851 59.1218 10.0529C58.7118 10.3776 58.3018 10.6902 57.8917 10.9787C57.6867 11.123 57.4576 11.1831 57.2164 11.087C57.0234 11.0028 56.8787 10.8946 56.7702 10.7383C56.6496 10.5699 56.5893 10.3776 56.5893 10.1852C56.5893 9.9928 56.7219 9.7403 56.9269 9.59602C57.1681 9.42768 57.3852 9.25935 57.5902 9.10304C57.8073 8.94674 58.0244 8.76638 58.2535 8.58603C58.4585 8.41769 58.6033 8.23734 58.6756 8.05698C58.748 7.87663 58.7962 7.64818 58.7962 7.33556V7.2514H57.5661C57.337 7.2514 57.1561 7.16723 57.0234 6.98688C56.9269 6.83057 56.8666 6.65022 56.8666 6.45784C56.8666 6.26546 56.9149 6.0851 57.0234 5.92879C57.144 5.73641 57.349 5.66427 57.5661 5.66427H61.7267C61.9559 5.66427 62.1368 5.74844 62.2694 5.92879C62.3659 6.0851 62.4262 6.26546 62.4262 6.45784C62.4262 6.65022 62.378 6.83057 62.2694 6.98688C62.1489 7.17926 61.9438 7.2514 61.7267 7.2514H60.5931V7.29949C60.5931 7.60009 60.6414 7.84056 60.7137 8.02091C60.7981 8.20127 60.9429 8.38162 61.1358 8.54995C61.365 8.74233 61.57 8.91066 61.775 9.06697C61.98 9.21126 62.1609 9.34352 62.3177 9.46376C62.5106 9.59602 62.6312 9.78839 62.6433 10.0289M61.968 10.8585C62.0644 10.8345 62.1609 10.7864 62.2333 10.7262C62.3056 10.6661 62.3539 10.606 62.4142 10.5339C62.5348 10.3655 62.6071 10.1732 62.5951 9.98077M48.5092 11.4477C48.5092 11.4477 48.4851 11.4958 48.461 11.5198C48.3886 11.64 48.3042 11.7483 48.1836 11.8925C48.075 12.0368 47.9183 12.1931 47.7494 12.3615C47.665 12.4577 47.6168 12.5057 47.5685 12.5538C47.4962 12.638 47.4479 12.6981 47.3032 12.8424C47.1464 13.0107 47.0258 13.119 46.8811 13.2632C46.8208 13.3113 46.7726 13.3715 46.7123 13.4316C46.5434 13.5879 46.3264 13.66 46.0972 13.6239C45.9043 13.5759 45.7595 13.4797 45.6269 13.3474C45.5184 13.2392 45.446 13.0949 45.4219 12.9386C45.3736 12.6981 45.4581 12.4456 45.6148 12.2773C45.6631 12.2292 45.7113 12.1811 45.7475 12.145C45.9404 11.9527 46.0731 11.8204 46.2781 11.628C46.4831 11.4236 46.5193 11.3755 46.652 11.2192C46.6882 11.1831 46.7243 11.1471 46.7605 11.099C46.9294 10.9066 47.062 10.7262 47.1706 10.5579C47.2791 10.3896 47.3515 10.2333 47.4238 10.0529C47.4962 9.88458 47.5565 9.71625 47.5806 9.52387C47.6168 9.3315 47.6288 9.10304 47.6288 8.86257V7.31152C47.6288 7.08307 47.7132 6.86664 47.9062 6.73438C48.075 6.62617 48.2559 6.56605 48.461 6.56605C48.666 6.56605 48.8469 6.61414 49.0036 6.73438C49.2087 6.86664 49.2931 7.07104 49.2931 7.31152V8.86257C49.2931 9.10304 49.2931 9.3315 49.3413 9.52387C49.3775 9.70423 49.4257 9.88458 49.486 10.0529C49.5584 10.2333 49.6428 10.4016 49.7634 10.5579C49.884 10.7142 50.0167 10.8946 50.1855 11.087C50.3423 11.2673 50.4388 11.3635 50.5594 11.4837C50.68 11.604 50.68 11.604 50.7403 11.6881C50.9332 11.8925 51.0418 11.9767 51.1865 12.121C51.2106 12.145 51.2468 12.1811 51.2829 12.2052C51.4518 12.3615 51.5362 12.5538 51.5 12.7943C51.4759 12.9747 51.4035 13.155 51.2709 13.2873C51.1382 13.4195 50.9694 13.5037 50.7764 13.5398C50.5594 13.5759 50.3543 13.5037 50.1976 13.3474C49.8237 12.9987 49.5463 12.7222 49.2087 12.3494L48.7986 11.8685C48.678 11.7242 48.6057 11.628 48.5333 11.5198C48.4609 11.4116 48.4971 11.4477 48.4971 11.4477H48.5092ZM75.8729 5.20737C76.0659 5.20737 76.2468 5.25547 76.4035 5.36368C76.5965 5.48392 76.6689 5.70034 76.6689 5.92879V10.2092C76.6689 10.4377 76.5844 10.6301 76.4035 10.7623C76.2468 10.8585 76.0659 10.9186 75.8729 10.9186C75.68 10.9186 75.4991 10.8705 75.3423 10.7623C75.1493 10.6421 75.077 10.4256 75.077 10.2092V5.92879C75.077 5.70034 75.1614 5.50797 75.3423 5.36368C75.4991 5.26749 75.68 5.20737 75.8729 5.20737ZM71.9414 12.9867V14.682H74.3051V12.9867H71.9414ZM64.6452 5.07511C64.8382 5.07511 65.0191 5.12321 65.1759 5.23142C65.3688 5.35166 65.4412 5.56808 65.4412 5.79653V7.64818H66.2733C66.4783 7.64818 66.6713 7.72032 66.7919 7.90068C66.8884 8.03294 66.9366 8.20127 66.9366 8.3696C66.9366 8.53793 66.8884 8.71829 66.7919 8.86257C66.6713 9.04292 66.4783 9.10304 66.2733 9.10304H65.4412V10.9667C65.4412 11.1952 65.3568 11.3875 65.1759 11.5198C65.0191 11.616 64.8382 11.6761 64.6452 11.6761C64.4523 11.6761 64.2714 11.628 64.1146 11.5198C63.9216 11.3996 63.8493 11.1952 63.8493 10.9667V5.78451C63.8493 5.55606 63.9337 5.36368 64.1146 5.23142C64.2714 5.13523 64.4523 5.07511 64.6452 5.07511ZM53.3211 5.30356C53.514 5.30356 53.6949 5.35166 53.8517 5.45987C54.0446 5.59213 54.117 5.79653 54.117 6.02498V9.77637H54.9371C55.1421 9.77637 55.335 9.84851 55.4436 10.0168C55.5401 10.1491 55.5883 10.3174 55.5883 10.4858C55.5883 10.6541 55.5401 10.8224 55.4556 10.9667C55.3471 11.1471 55.1542 11.2192 54.9371 11.2192H54.117V14.8023C54.117 15.0307 54.0326 15.2231 53.8517 15.3674C53.6949 15.4636 53.514 15.5237 53.3211 15.5237C53.1281 15.5237 52.9472 15.4756 52.7904 15.3674C52.5975 15.2351 52.5251 15.0307 52.5251 14.8023V6.01296C52.5251 5.78451 52.6095 5.59213 52.7904 5.45987C52.9472 5.36368 53.1281 5.30356 53.3211 5.30356Z" fill="white"/>
<path d="M17.6284 8.29427V1.17625C17.6284 0.62316 18.0867 0.16626 18.6535 0.16626C19.2203 0.16626 19.6786 0.611136 19.6786 1.17625V8.29427C19.6786 8.84735 19.2203 9.30426 18.6535 9.30426C18.0867 9.30426 17.6284 8.85938 17.6284 8.29427ZM37.8286 10.9755L35.6458 8.82331C35.2478 8.42653 34.6087 8.42653 34.1986 8.82331C33.7886 9.22009 33.8007 9.85734 34.1986 10.2421L34.6328 10.675H8.41474C7.75145 10.675 7.257 10.2541 7.257 9.66497C7.257 9.07581 7.71527 8.65498 8.28208 8.65498H12.1895C13.8778 8.65498 15.2647 7.2963 15.2647 5.62501C15.2647 3.95372 13.8899 2.60707 12.1895 2.60707H3.49433L3.92849 2.17421C4.32646 1.77743 4.32646 1.14018 3.92849 0.75542C3.53051 0.358639 2.89134 0.358639 2.48131 0.75542L0.298481 2.90766C-0.0994935 3.30444 -0.0994935 3.94169 0.298481 4.32645L2.48131 6.47869C2.68633 6.68309 2.93958 6.76726 3.2049 6.76726C3.47021 6.76726 3.73553 6.67107 3.92849 6.47869C4.32646 6.08191 4.32646 5.44465 3.92849 5.0599L3.49433 4.62704H12.1895C12.7563 4.62704 13.2145 5.07192 13.2145 5.63703C13.2145 6.20215 12.7563 6.64702 12.1895 6.64702H8.28208C6.59371 6.64702 5.20683 8.0057 5.20683 9.66497C5.20683 11.3242 6.60577 12.6949 8.40268 12.6949H24.0684V20.7628C24.0684 21.3159 24.5267 21.7728 25.0935 21.7728C25.6603 21.7728 26.1186 21.3279 26.1186 20.7628V12.6949H34.6207L34.1866 13.1278C33.7886 13.5246 33.7886 14.1618 34.1866 14.5466C34.3916 14.751 34.6448 14.8351 34.9102 14.8351C35.1755 14.8351 35.4408 14.739 35.6338 14.5466L37.8166 12.3943C38.2146 11.9976 38.2146 11.3603 37.8166 10.9755H37.8286ZM19.6183 18.0575C19.6183 20.1376 17.8938 21.8329 15.7833 21.8329C13.6728 21.8329 11.9483 20.1376 11.9483 18.0575C11.9483 15.9774 13.6728 14.2821 15.7833 14.2821C17.8938 14.2821 19.6183 15.9774 19.6183 18.0575ZM17.5681 18.0575C17.5681 17.0836 16.7601 16.29 15.7712 16.29C14.7823 16.29 13.9743 17.0836 13.9743 18.0575C13.9743 19.0314 14.7823 19.825 15.7712 19.825C16.7601 19.825 17.5681 19.0314 17.5681 18.0575ZM23.0674 4.63907H29.2179C29.7727 4.63907 30.2189 5.0599 30.243 5.58894C30.1948 5.86548 30.1104 6.13 29.9777 6.3825C29.8089 6.68309 29.6038 6.97166 29.3868 7.24821L29.037 7.64499C28.6632 8.06582 28.7235 8.70307 29.1576 9.06378C29.3506 9.22009 29.5797 9.30426 29.8209 9.30426C30.0621 9.30426 30.3998 9.18402 30.6048 8.94355L30.9545 8.54676C31.2681 8.17403 31.5455 7.77725 31.7867 7.3444C32.052 6.85142 32.2208 6.32238 32.2932 5.76929V5.64906C32.2932 3.97777 30.9184 2.63111 29.2179 2.63111H23.0674C22.5127 2.63111 22.0423 3.07599 22.0423 3.6411C22.0423 4.20622 22.5006 4.65109 23.0674 4.65109V4.63907Z" fill="white"/>
</svg>
