<svg width="164" height="74" viewBox="0 0 164 74" fill="none" xmlns="http://www.w3.org/2000/svg">
<g filter="url(#filter0_d_691_5911)">
<rect x="18.625" y="10.25" width="128.75" height="35.1409" rx="6.08386" fill="#EEF4FB"/>
<path d="M36.0859 18.4434H30.4414V17.8086H36.0859V18.4434ZM37.5117 24.3809H29.6016V23.7461H37.5117V24.3809ZM33.459 24.0781H32.707V20.6406H33.459V24.0781ZM36.5645 18.6777C36.5645 19.1921 36.5579 19.6201 36.5449 19.9619C36.5319 20.3037 36.5026 20.7074 36.457 21.1729C36.4115 21.6383 36.3398 22.1413 36.2422 22.6816L35.4609 22.5938C35.5651 22.0794 35.6416 21.5944 35.6904 21.1387C35.7393 20.6829 35.7686 20.2777 35.7783 19.9229C35.7881 19.568 35.793 19.153 35.793 18.6777V17.8086H36.5645V18.6777ZM45.3172 22.0566H44.5848V16.9395H45.3172V22.0566ZM44.8484 19.7617H43.1687V19.127H44.8484V19.7617ZM43.4031 21.998H42.6707V17.1055H43.4031V21.998ZM45.3172 25.6113H44.5652V23.082H39.4578V22.457H45.3172V25.6113ZM41.7527 17.5742C41.7527 18.2578 41.6258 18.8877 41.3719 19.4639C41.118 20.04 40.7387 20.5544 40.2342 21.0068C39.7296 21.4593 39.1095 21.8418 38.3738 22.1543L37.993 21.5781C38.644 21.3112 39.1925 20.9906 39.6385 20.6162C40.0844 20.2419 40.4197 19.8203 40.6443 19.3516C40.8689 18.8828 40.9812 18.3783 40.9812 17.8379V17.5742H41.7527ZM41.2645 18.209H38.3445V17.5742H41.2645V18.209ZM53.4449 21.8613H52.693V16.9297H53.4449V21.8613ZM47.6051 20.9629H46.8336V17.4473H47.6051V20.9629ZM47.5367 20.543C48.3115 20.543 49.0325 20.512 49.6998 20.4502C50.3671 20.3883 51.0361 20.2858 51.7066 20.1426L51.8238 20.7871C51.1142 20.9303 50.4176 21.0329 49.734 21.0947C49.0504 21.1566 48.318 21.1908 47.5367 21.1973H46.8336V20.543H47.5367ZM53.4449 25.4941H47.8102V22.2617H53.4449V25.4941ZM48.5621 24.8691H52.693V22.877H48.5621V24.8691ZM55.9672 22.8281H55.1469L55.0785 17.75H56.0355L55.9672 22.8281ZM55.557 24.8789C55.4464 24.8789 55.3422 24.8496 55.2445 24.791C55.1469 24.7324 55.0704 24.6543 55.015 24.5566C54.9597 24.459 54.932 24.3548 54.932 24.2441C54.932 24.1335 54.9597 24.0293 55.015 23.9316C55.0704 23.834 55.1469 23.7575 55.2445 23.7021C55.3422 23.6468 55.4464 23.6191 55.557 23.6191C55.6677 23.6191 55.7719 23.6468 55.8695 23.7021C55.9672 23.7575 56.0437 23.834 56.099 23.9316C56.1544 24.0293 56.182 24.1335 56.182 24.2441C56.182 24.3548 56.1544 24.459 56.099 24.5566C56.0437 24.6543 55.9672 24.7324 55.8695 24.791C55.7719 24.8496 55.6677 24.8789 55.557 24.8789ZM65.582 18.1309H60.1035V17.4961H65.582V18.1309ZM67.0176 21.8613H59.1074V21.2266H67.0176V21.8613ZM63.4336 25.6309H62.6621V21.6465H63.4336V25.6309ZM65.9727 18.2578C65.9727 18.668 65.9678 19.0228 65.958 19.3223C65.9482 19.6217 65.9189 19.9668 65.8701 20.3574C65.8213 20.748 65.7448 21.1712 65.6406 21.627L64.8789 21.5293C64.9831 21.0931 65.0596 20.6846 65.1084 20.3037C65.1572 19.9229 65.1865 19.5859 65.1963 19.293C65.2061 19 65.2109 18.6549 65.2109 18.2578V17.4961H65.9727V18.2578ZM75.3602 21.8906H67.45V21.2656H75.3602V21.8906ZM71.7859 21.5293H71.0242V19.7715H71.7859V21.5293ZM74.3934 25.6797H73.6316V23.3652H68.3289V22.7402H74.3934V25.6797ZM74.4617 20.2109H68.4559V19.5762H74.4617V20.2109ZM74.3836 17.916H69.2176V19.9082H68.4559V17.2812H74.3836V17.916ZM85.1703 22.2812H84.4086V16.9395H85.1703V22.2812ZM79.1645 21.0996C80.0368 21.0996 80.7839 21.0817 81.4057 21.0459C82.0274 21.0101 82.6671 20.9368 83.3246 20.8262L83.4125 21.4609C82.7289 21.5716 82.0665 21.6465 81.4252 21.6855C80.7839 21.7246 80.0303 21.7441 79.1645 21.7441H78.4613V21.0996H79.1645ZM82.4066 19.8691H79.2035V21.4707H78.4613V19.2637H81.6449V18.1309H78.4418V17.4863H82.4066V19.8691ZM82.2895 22.457C82.8949 22.457 83.419 22.5189 83.8617 22.6426C84.3044 22.7663 84.643 22.9453 84.8773 23.1797C85.1117 23.4141 85.2289 23.6973 85.2289 24.0293C85.2289 24.3548 85.1117 24.6348 84.8773 24.8691C84.643 25.1035 84.3061 25.2826 83.8666 25.4062C83.4271 25.5299 82.9014 25.5918 82.2895 25.5918C81.684 25.5918 81.1615 25.5299 80.7221 25.4062C80.2826 25.2826 79.9457 25.1035 79.7113 24.8691C79.477 24.6348 79.3598 24.3548 79.3598 24.0293C79.3598 23.6973 79.477 23.4141 79.7113 23.1797C79.9457 22.9453 80.2826 22.7663 80.7221 22.6426C81.1615 22.5189 81.684 22.457 82.2895 22.457ZM82.2895 23.0723C81.8467 23.0723 81.461 23.1097 81.1322 23.1846C80.8034 23.2594 80.5512 23.3685 80.3754 23.5117C80.1996 23.6549 80.1117 23.8275 80.1117 24.0293C80.1117 24.2246 80.1996 24.3939 80.3754 24.5371C80.5512 24.6803 80.8034 24.7894 81.1322 24.8643C81.461 24.9391 81.8467 24.9766 82.2895 24.9766C82.7387 24.9766 83.126 24.9391 83.4516 24.8643C83.7771 24.7894 84.0261 24.6803 84.1986 24.5371C84.3712 24.3939 84.4574 24.2246 84.4574 24.0293C84.4574 23.8275 84.3712 23.6549 84.1986 23.5117C84.0261 23.3685 83.7771 23.2594 83.4516 23.1846C83.126 23.1097 82.7387 23.0723 82.2895 23.0723ZM92.8488 18.4629H87.302V17.8184H92.8488V18.4629ZM94.2551 24.3906H86.3449V23.7461H94.2551V24.3906ZM93.2687 18.8926C93.2687 19.4525 93.2639 19.9229 93.2541 20.3037C93.2443 20.6846 93.2134 21.1094 93.1613 21.5781C93.1092 22.0469 93.0246 22.5579 92.9074 23.1113L92.1359 23.043C92.2531 22.5286 92.3394 22.0387 92.3947 21.5732C92.4501 21.1077 92.4859 20.6895 92.5021 20.3184C92.5184 19.9473 92.5266 19.472 92.5266 18.8926V17.8184H93.2687V18.8926ZM87.175 21.0996L87.0676 20.4648L92.7219 20.2305V20.7969L87.175 21.0996ZM101.855 21.5879H101.094V16.9297H101.855V21.5879ZM96.9922 23.082H101.094V22.0273H101.855V25.4941H96.2305V22.0273H96.9922V23.082ZM101.094 24.8691V23.6973H96.9922V24.8691H101.094ZM97.168 17.3594C97.6042 17.3529 97.9948 17.4326 98.3398 17.5986C98.6849 17.7646 98.9551 18.0007 99.1504 18.3066C99.3457 18.6126 99.4434 18.9609 99.4434 19.3516C99.4434 19.7357 99.3457 20.0791 99.1504 20.3818C98.9551 20.6846 98.6849 20.9206 98.3398 21.0898C97.9948 21.2591 97.6042 21.3438 97.168 21.3438C96.7318 21.3438 96.3411 21.2591 95.9961 21.0898C95.651 20.9206 95.3809 20.6846 95.1855 20.3818C94.9902 20.0791 94.8926 19.7357 94.8926 19.3516C94.8926 18.9609 94.9902 18.6126 95.1855 18.3066C95.3809 18.0007 95.651 17.7646 95.9961 17.5986C96.3411 17.4326 96.7318 17.3529 97.168 17.3594ZM97.168 18.0039C96.875 17.9974 96.613 18.0527 96.3818 18.1699C96.1507 18.2871 95.9701 18.4482 95.8398 18.6533C95.7096 18.8584 95.6445 19.0911 95.6445 19.3516C95.6445 19.612 95.7096 19.8447 95.8398 20.0498C95.9701 20.2549 96.1507 20.416 96.3818 20.5332C96.613 20.6504 96.875 20.709 97.168 20.709C97.4609 20.709 97.723 20.6504 97.9541 20.5332C98.1852 20.416 98.3659 20.2549 98.4961 20.0498C98.6263 19.8447 98.6914 19.612 98.6914 19.3516C98.6914 19.0911 98.6263 18.8584 98.4961 18.6533C98.3659 18.4482 98.1852 18.2871 97.9541 18.1699C97.723 18.0527 97.4609 17.9974 97.168 18.0039ZM110.188 25.6113H109.427V16.9297H110.188V25.6113ZM104.348 23.1602H103.596V17.7891H104.348V23.1602ZM104.3 22.7109C105.009 22.7109 105.711 22.6784 106.404 22.6133C107.097 22.5482 107.796 22.4408 108.499 22.291L108.606 22.9453C107.871 23.0951 107.153 23.2041 106.453 23.2725C105.753 23.3408 105.035 23.375 104.3 23.375H103.596V22.7109H104.3ZM118.091 25.6309H117.33V16.9297H118.091V25.6309ZM119.546 21.0117H117.916V20.3672H119.546V21.0117ZM112.437 22.8086C113.277 22.8086 114.004 22.7858 114.62 22.7402C115.235 22.6947 115.858 22.6133 116.49 22.4961L116.588 23.1602C115.949 23.2773 115.321 23.3555 114.703 23.3945C114.084 23.4336 113.329 23.4531 112.437 23.4531H111.754V22.8086H112.437ZM115.806 18.4141H112.515V23.1016H111.754V17.7793H115.806V18.4141ZM121.698 18.3652V18.707H121.454V18.3652H121.698ZM121.102 17.9648H122.039L123.475 20.9531H122.645L121.532 18.5703H121.62L120.506 20.9531H119.676L121.102 17.9648ZM125.821 18.3652V18.707H125.577V18.3652H125.821ZM125.226 17.9648H126.163L127.599 20.9531H126.769L125.655 18.5703H125.743L124.63 20.9531H123.8L125.226 17.9648Z" fill="#8B95A1"/>
<path d="M30.7637 38.8203H29.9238V31.75H30.7637V34.3477H30.832C30.9622 34.0612 31.1543 33.8398 31.4082 33.6836C31.6621 33.5273 31.9909 33.4492 32.3945 33.4492C32.7656 33.4492 33.0863 33.5225 33.3564 33.6689C33.6266 33.8154 33.835 34.0384 33.9814 34.3379C34.1279 34.6374 34.2012 35.0085 34.2012 35.4512V38.8203H33.3613V35.5098C33.3613 35.2363 33.3125 35.0003 33.2148 34.8018C33.1172 34.6032 32.9772 34.4535 32.7949 34.3525C32.6126 34.2516 32.3945 34.2012 32.1406 34.2012C31.8737 34.2012 31.6377 34.2565 31.4326 34.3672C31.2275 34.4779 31.0648 34.6423 30.9443 34.8604C30.8239 35.0785 30.7637 35.3372 30.7637 35.6367V38.8203ZM37.5633 34.2207H34.7996V33.5176H37.5633V34.2207ZM36.45 32.248V37.2969C36.45 37.5117 36.4809 37.6761 36.5428 37.79C36.6046 37.904 36.686 37.9821 36.7869 38.0244C36.8878 38.0667 37.0066 38.0879 37.1434 38.0879C37.3061 38.0879 37.4721 38.0814 37.6414 38.0684V38.8496C37.4721 38.8757 37.2768 38.8887 37.0555 38.8887C36.8081 38.8887 36.5737 38.8366 36.3523 38.7324C36.131 38.6283 35.9503 38.472 35.8104 38.2637C35.6704 38.0553 35.6004 37.8047 35.6004 37.5117V32.248H36.45ZM40.6617 34.2207H37.898V33.5176H40.6617V34.2207ZM39.5484 32.248V37.2969C39.5484 37.5117 39.5794 37.6761 39.6412 37.79C39.7031 37.904 39.7844 37.9821 39.8854 38.0244C39.9863 38.0667 40.1051 38.0879 40.2418 38.0879C40.4046 38.0879 40.5706 38.0814 40.7398 38.0684V38.8496C40.5706 38.8757 40.3753 38.8887 40.1539 38.8887C39.9065 38.8887 39.6721 38.8366 39.4508 38.7324C39.2294 38.6283 39.0488 38.472 38.9088 38.2637C38.7688 38.0553 38.6988 37.8047 38.6988 37.5117V32.248H39.5484ZM41.4457 33.5176H42.2563V34.3574H42.3539C42.4581 34.1882 42.559 34.0449 42.6566 33.9277C42.7543 33.8105 42.9057 33.7015 43.1107 33.6006C43.3158 33.4997 43.5746 33.4492 43.8871 33.4492C44.3298 33.4492 44.7221 33.5599 45.0639 33.7812C45.4057 34.0026 45.671 34.32 45.8598 34.7334C46.0486 35.1468 46.143 35.6302 46.143 36.1836C46.143 36.7305 46.0486 37.2122 45.8598 37.6289C45.671 38.0456 45.4057 38.3662 45.0639 38.5908C44.7221 38.8154 44.3331 38.9277 43.8969 38.9277C43.5909 38.9277 43.3337 38.8757 43.1254 38.7715C42.9171 38.6673 42.7608 38.555 42.6566 38.4346C42.5525 38.3141 42.4516 38.1725 42.3539 38.0098H42.2855V40.8125H41.4457V33.5176ZM42.266 36.1641C42.266 36.5612 42.3246 36.9111 42.4418 37.2139C42.559 37.5166 42.7315 37.7526 42.9594 37.9219C43.1872 38.0911 43.4607 38.1758 43.7797 38.1758C44.1052 38.1758 44.3835 38.0879 44.6146 37.9121C44.8458 37.7363 45.0183 37.4971 45.1322 37.1943C45.2462 36.8916 45.3031 36.5482 45.3031 36.1641C45.3031 35.7865 45.2462 35.4495 45.1322 35.1533C45.0183 34.8571 44.8474 34.6243 44.6195 34.4551C44.3917 34.2858 44.1117 34.2012 43.7797 34.2012C43.4542 34.2012 43.1791 34.2826 42.9545 34.4453C42.7299 34.6081 42.559 34.8359 42.4418 35.1289C42.3246 35.4219 42.266 35.7669 42.266 36.1641ZM49.8859 34.8945C49.8273 34.6602 49.7085 34.4795 49.5295 34.3525C49.3505 34.2256 49.1112 34.1621 48.8117 34.1621C48.5969 34.1621 48.4048 34.1963 48.2355 34.2646C48.0663 34.333 47.9328 34.429 47.8352 34.5527C47.7375 34.6764 47.6887 34.8132 47.6887 34.9629C47.6887 35.1387 47.7635 35.2884 47.9133 35.4121C48.063 35.5358 48.2909 35.6335 48.5969 35.7051L49.3879 35.9004C49.8632 36.0111 50.218 36.1852 50.4523 36.4229C50.6867 36.6605 50.8039 36.9648 50.8039 37.3359C50.8039 37.6419 50.7225 37.9154 50.5598 38.1562C50.397 38.3971 50.1594 38.5859 49.8469 38.7227C49.5344 38.8594 49.16 38.9277 48.7238 38.9277C48.3267 38.9277 47.9849 38.8708 47.6984 38.7568C47.412 38.6429 47.1825 38.4736 47.01 38.249C46.8374 38.0244 46.7284 37.7526 46.6828 37.4336H47.5617C47.6138 37.6875 47.7342 37.8779 47.923 38.0049C48.1118 38.1318 48.3723 38.1953 48.7043 38.1953C48.9517 38.1953 49.1682 38.1628 49.3537 38.0977C49.5393 38.0326 49.6825 37.9382 49.7834 37.8145C49.8843 37.6908 49.9348 37.5475 49.9348 37.3848C49.9348 37.196 49.8648 37.0381 49.7248 36.9111C49.5848 36.7842 49.3651 36.6882 49.0656 36.623L48.2648 36.4375C47.8026 36.3268 47.451 36.1494 47.2102 35.9053C46.9693 35.6611 46.8488 35.3633 46.8488 35.0117C46.8488 34.7122 46.9318 34.4437 47.0979 34.2061C47.2639 33.9684 47.495 33.7829 47.7912 33.6494C48.0874 33.516 48.4276 33.4492 48.8117 33.4492C49.1698 33.4492 49.4855 33.5094 49.759 33.6299C50.0324 33.7503 50.2505 33.9196 50.4133 34.1377C50.576 34.3558 50.6737 34.6081 50.7062 34.8945H49.8859ZM52.1934 38.8789C52.0827 38.8789 51.9785 38.8496 51.8809 38.791C51.7832 38.7324 51.7067 38.6543 51.6514 38.5566C51.596 38.459 51.5684 38.3548 51.5684 38.2441C51.5684 38.1335 51.596 38.0293 51.6514 37.9316C51.7067 37.834 51.7832 37.7575 51.8809 37.7021C51.9785 37.6468 52.0827 37.6191 52.1934 37.6191C52.304 37.6191 52.4082 37.6468 52.5059 37.7021C52.6035 37.7575 52.68 37.834 52.7354 37.9316C52.7907 38.0293 52.8184 38.1335 52.8184 38.2441C52.8184 38.3548 52.7907 38.459 52.7354 38.5566C52.68 38.6543 52.6035 38.7324 52.5059 38.791C52.4082 38.8496 52.304 38.8789 52.1934 38.8789ZM52.1934 34.9531C52.0827 34.9531 51.9785 34.9238 51.8809 34.8652C51.7832 34.8066 51.7067 34.7285 51.6514 34.6309C51.596 34.5332 51.5684 34.429 51.5684 34.3184C51.5684 34.2077 51.596 34.1035 51.6514 34.0059C51.7067 33.9082 51.7832 33.8317 51.8809 33.7764C51.9785 33.721 52.0827 33.6934 52.1934 33.6934C52.304 33.6934 52.4082 33.721 52.5059 33.7764C52.6035 33.8317 52.68 33.9082 52.7354 34.0059C52.7907 34.1035 52.8184 34.2077 52.8184 34.3184C52.8184 34.429 52.7907 34.5332 52.7354 34.6309C52.68 34.7285 52.6035 34.8066 52.5059 34.8652C52.4082 34.9238 52.304 34.9531 52.1934 34.9531ZM54.0711 39.8848H53.3094L55.5848 31.418H56.3563L54.0711 39.8848ZM57.1109 39.8848H56.3492L58.6246 31.418H59.3961L57.1109 39.8848ZM66.7621 36.2812H66.0004V30.9395H66.7621V36.2812ZM60.7563 35.0996C61.6286 35.0996 62.3757 35.0817 62.9975 35.0459C63.6192 35.0101 64.2589 34.9368 64.9164 34.8262L65.0043 35.4609C64.3207 35.5716 63.6583 35.6465 63.017 35.6855C62.3757 35.7246 61.6221 35.7441 60.7563 35.7441H60.0531V35.0996H60.7563ZM63.9984 33.8691H60.7953V35.4707H60.0531V33.2637H63.2367V32.1309H60.0336V31.4863H63.9984V33.8691ZM63.8813 36.457C64.4867 36.457 65.0108 36.5189 65.4535 36.6426C65.8962 36.7663 66.2348 36.9453 66.4691 37.1797C66.7035 37.4141 66.8207 37.6973 66.8207 38.0293C66.8207 38.3548 66.7035 38.6348 66.4691 38.8691C66.2348 39.1035 65.8979 39.2826 65.4584 39.4062C65.0189 39.5299 64.4932 39.5918 63.8813 39.5918C63.2758 39.5918 62.7533 39.5299 62.3139 39.4062C61.8744 39.2826 61.5375 39.1035 61.3031 38.8691C61.0688 38.6348 60.9516 38.3548 60.9516 38.0293C60.9516 37.6973 61.0688 37.4141 61.3031 37.1797C61.5375 36.9453 61.8744 36.7663 62.3139 36.6426C62.7533 36.5189 63.2758 36.457 63.8813 36.457ZM63.8813 37.0723C63.4385 37.0723 63.0528 37.1097 62.724 37.1846C62.3952 37.2594 62.143 37.3685 61.9672 37.5117C61.7914 37.6549 61.7035 37.8275 61.7035 38.0293C61.7035 38.2246 61.7914 38.3939 61.9672 38.5371C62.143 38.6803 62.3952 38.7894 62.724 38.8643C63.0528 38.9391 63.4385 38.9766 63.8813 38.9766C64.3305 38.9766 64.7178 38.9391 65.0434 38.8643C65.3689 38.7894 65.6179 38.6803 65.7904 38.5371C65.963 38.3939 66.0492 38.2246 66.0492 38.0293C66.0492 37.8275 65.963 37.6549 65.7904 37.5117C65.6179 37.3685 65.3689 37.2594 65.0434 37.1846C64.7178 37.1097 64.3305 37.0723 63.8813 37.0723ZM74.4113 32.1309H68.9328V31.4961H74.4113V32.1309ZM75.8469 35.8613H67.9367V35.2266H75.8469V35.8613ZM72.2629 39.6309H71.4914V35.6465H72.2629V39.6309ZM74.802 32.2578C74.802 32.668 74.7971 33.0228 74.7873 33.3223C74.7775 33.6217 74.7482 33.9668 74.6994 34.3574C74.6506 34.748 74.5741 35.1712 74.4699 35.627L73.7082 35.5293C73.8124 35.0931 73.8889 34.6846 73.9377 34.3037C73.9865 33.9229 74.0158 33.5859 74.0256 33.293C74.0354 33 74.0402 32.6549 74.0402 32.2578V31.4961H74.802V32.2578ZM77.1973 38.8789C77.0866 38.8789 76.9824 38.8496 76.8848 38.791C76.7871 38.7324 76.7106 38.6543 76.6553 38.5566C76.5999 38.459 76.5723 38.3548 76.5723 38.2441C76.5723 38.1335 76.5999 38.0293 76.6553 37.9316C76.7106 37.834 76.7871 37.7575 76.8848 37.7021C76.9824 37.6468 77.0866 37.6191 77.1973 37.6191C77.3079 37.6191 77.4121 37.6468 77.5098 37.7021C77.6074 37.7575 77.6839 37.834 77.7393 37.9316C77.7946 38.0293 77.8223 38.1335 77.8223 38.2441C77.8223 38.3548 77.7946 38.459 77.7393 38.5566C77.6839 38.6543 77.6074 38.7324 77.5098 38.791C77.4121 38.8496 77.3079 38.8789 77.1973 38.8789ZM81.0086 38.9277C80.5203 38.9277 80.0923 38.8105 79.7244 38.5762C79.3566 38.3418 79.075 38.0179 78.8797 37.6045C78.6844 37.1911 78.5867 36.7207 78.5867 36.1934C78.5867 35.6595 78.6876 35.1842 78.8895 34.7676C79.0913 34.3509 79.3729 34.027 79.7342 33.7959C80.0955 33.5648 80.5138 33.4492 80.9891 33.4492C81.3667 33.4492 81.7068 33.5176 82.0096 33.6543C82.3123 33.791 82.5581 33.9863 82.7469 34.2402C82.9357 34.4941 83.0529 34.7871 83.0984 35.1191H82.2586C82.2195 34.9499 82.1447 34.7952 82.034 34.6553C81.9233 34.5153 81.7817 34.403 81.6092 34.3184C81.4367 34.2337 81.2365 34.1914 81.0086 34.1914C80.6961 34.1914 80.421 34.2728 80.1834 34.4355C79.9458 34.5983 79.7602 34.8278 79.6268 35.124C79.4933 35.4202 79.4266 35.7669 79.4266 36.1641C79.4266 36.5677 79.4917 36.9209 79.6219 37.2236C79.7521 37.5264 79.936 37.7607 80.1736 37.9268C80.4113 38.0928 80.6896 38.1758 81.0086 38.1758C81.2169 38.1758 81.4074 38.14 81.5799 38.0684C81.7524 37.9967 81.8973 37.891 82.0145 37.751C82.1316 37.611 82.213 37.4466 82.2586 37.2578H83.0984C83.0529 37.5768 82.9389 37.8617 82.7566 38.1123C82.5743 38.363 82.3335 38.5615 82.034 38.708C81.7345 38.8545 81.3927 38.9277 81.0086 38.9277ZM86.0016 38.9277C85.5263 38.9277 85.1048 38.8138 84.7369 38.5859C84.3691 38.3581 84.0842 38.0374 83.8824 37.624C83.6806 37.2106 83.5797 36.7337 83.5797 36.1934C83.5797 35.6465 83.6806 35.1663 83.8824 34.7529C84.0842 34.3395 84.3691 34.0189 84.7369 33.791C85.1048 33.5632 85.5263 33.4492 86.0016 33.4492C86.4768 33.4492 86.8967 33.5632 87.2613 33.791C87.6259 34.0189 87.9075 34.3395 88.1061 34.7529C88.3046 35.1663 88.4039 35.6465 88.4039 36.1934C88.4039 36.7337 88.3046 37.2106 88.1061 37.624C87.9075 38.0374 87.6259 38.3581 87.2613 38.5859C86.8967 38.8138 86.4768 38.9277 86.0016 38.9277ZM86.0016 38.1855C86.3466 38.1855 86.6363 38.0944 86.8707 37.9121C87.1051 37.7298 87.2792 37.4889 87.3932 37.1895C87.5071 36.89 87.5641 36.5579 87.5641 36.1934C87.5641 35.8288 87.5071 35.4951 87.3932 35.1924C87.2792 34.8896 87.1051 34.6471 86.8707 34.4648C86.6363 34.2826 86.3466 34.1914 86.0016 34.1914C85.6565 34.1914 85.3652 34.2826 85.1275 34.4648C84.8899 34.6471 84.7125 34.8896 84.5953 35.1924C84.4781 35.4951 84.4195 35.8288 84.4195 36.1934C84.4195 36.5579 84.4781 36.89 84.5953 37.1895C84.7125 37.4889 84.8899 37.7298 85.1275 37.9121C85.3652 38.0944 85.6565 38.1855 86.0016 38.1855ZM89.2074 33.5176H90.018V34.3477H90.0863C90.2035 34.0612 90.3842 33.8398 90.6283 33.6836C90.8725 33.5273 91.1671 33.4492 91.5121 33.4492C91.74 33.4492 91.9451 33.4834 92.1273 33.5518C92.3096 33.6201 92.4675 33.721 92.601 33.8545C92.7344 33.988 92.8435 34.1523 92.9281 34.3477H92.9867C93.0779 34.1589 93.1999 33.9977 93.3529 33.8643C93.5059 33.7308 93.6866 33.6283 93.8949 33.5566C94.1033 33.485 94.3311 33.4492 94.5785 33.4492C94.904 33.4492 95.1872 33.516 95.4281 33.6494C95.669 33.7829 95.8578 33.9847 95.9945 34.2549C96.1312 34.5251 96.1996 34.8652 96.1996 35.2754V38.8203H95.3598V35.2852C95.3598 34.9141 95.2589 34.6406 95.057 34.4648C94.8552 34.2891 94.598 34.2012 94.2855 34.2012C94.0447 34.2012 93.8363 34.2516 93.6605 34.3525C93.4848 34.4535 93.3513 34.5918 93.2602 34.7676C93.169 34.9434 93.1234 35.1452 93.1234 35.373V38.8203H92.2738V35.1973C92.2738 35.002 92.2299 34.8278 92.142 34.6748C92.0541 34.5218 91.932 34.4046 91.7758 34.3232C91.6195 34.2419 91.4405 34.2012 91.2387 34.2012C91.0303 34.2012 90.835 34.2565 90.6527 34.3672C90.4704 34.4779 90.324 34.6325 90.2133 34.8311C90.1026 35.0296 90.0473 35.2559 90.0473 35.5098V38.8203H89.2074V33.5176ZM97.4816 39.8848H96.7199L98.9953 31.418H99.7668L97.4816 39.8848ZM100.287 33.5176H101.098V34.3574H101.195C101.299 34.1882 101.4 34.0449 101.498 33.9277C101.596 33.8105 101.747 33.7015 101.952 33.6006C102.157 33.4997 102.416 33.4492 102.729 33.4492C103.171 33.4492 103.563 33.5599 103.905 33.7812C104.247 34.0026 104.512 34.32 104.701 34.7334C104.89 35.1468 104.984 35.6302 104.984 36.1836C104.984 36.7305 104.89 37.2122 104.701 37.6289C104.512 38.0456 104.247 38.3662 103.905 38.5908C103.563 38.8154 103.174 38.9277 102.738 38.9277C102.432 38.9277 102.175 38.8757 101.967 38.7715C101.758 38.6673 101.602 38.555 101.498 38.4346C101.394 38.3141 101.293 38.1725 101.195 38.0098H101.127V40.8125H100.287V33.5176ZM101.107 36.1641C101.107 36.5612 101.166 36.9111 101.283 37.2139C101.4 37.5166 101.573 37.7526 101.801 37.9219C102.029 38.0911 102.302 38.1758 102.621 38.1758C102.947 38.1758 103.225 38.0879 103.456 37.9121C103.687 37.7363 103.86 37.4971 103.974 37.1943C104.088 36.8916 104.145 36.5482 104.145 36.1641C104.145 35.7865 104.088 35.4495 103.974 35.1533C103.86 34.8571 103.689 34.6243 103.461 34.4551C103.233 34.2858 102.953 34.2012 102.621 34.2012C102.296 34.2012 102.021 34.2826 101.796 34.4453C101.571 34.6081 101.4 34.8359 101.283 35.1289C101.166 35.4219 101.107 35.7669 101.107 36.1641ZM105.778 33.5176H106.589V34.3281H106.647C106.745 34.0547 106.919 33.8366 107.17 33.6738C107.42 33.5111 107.702 33.4297 108.014 33.4297C108.177 33.4297 108.324 33.4362 108.454 33.4492V34.2988C108.421 34.2858 108.353 34.2728 108.249 34.2598C108.145 34.2467 108.044 34.2402 107.946 34.2402C107.699 34.2402 107.474 34.2939 107.272 34.4014C107.07 34.5088 106.911 34.6569 106.794 34.8457C106.677 35.0345 106.618 35.2461 106.618 35.4805V38.8203H105.778V33.5176ZM110.966 38.9277C110.491 38.9277 110.07 38.8138 109.702 38.5859C109.334 38.3581 109.049 38.0374 108.847 37.624C108.645 37.2106 108.545 36.7337 108.545 36.1934C108.545 35.6465 108.645 35.1663 108.847 34.7529C109.049 34.3395 109.334 34.0189 109.702 33.791C110.07 33.5632 110.491 33.4492 110.966 33.4492C111.442 33.4492 111.862 33.5632 112.226 33.791C112.591 34.0189 112.872 34.3395 113.071 34.7529C113.269 35.1663 113.369 35.6465 113.369 36.1934C113.369 36.7337 113.269 37.2106 113.071 37.624C112.872 38.0374 112.591 38.3581 112.226 38.5859C111.862 38.8138 111.442 38.9277 110.966 38.9277ZM110.966 38.1855C111.311 38.1855 111.601 38.0944 111.836 37.9121C112.07 37.7298 112.244 37.4889 112.358 37.1895C112.472 36.89 112.529 36.5579 112.529 36.1934C112.529 35.8288 112.472 35.4951 112.358 35.1924C112.244 34.8896 112.07 34.6471 111.836 34.4648C111.601 34.2826 111.311 34.1914 110.966 34.1914C110.621 34.1914 110.33 34.2826 110.092 34.4648C109.855 34.6471 109.677 34.8896 109.56 35.1924C109.443 35.4951 109.384 35.8288 109.384 36.1934C109.384 36.5579 109.443 36.89 109.56 37.1895C109.677 37.4889 109.855 37.7298 110.092 37.9121C110.33 38.0944 110.621 38.1855 110.966 38.1855ZM116.174 38.9277C115.738 38.9277 115.349 38.8154 115.007 38.5908C114.665 38.3662 114.399 38.0456 114.206 37.6289C114.014 37.2122 113.918 36.7305 113.918 36.1836C113.918 35.6302 114.014 35.1468 114.206 34.7334C114.399 34.32 114.665 34.0026 115.007 33.7812C115.349 33.5599 115.741 33.4492 116.184 33.4492C116.496 33.4492 116.755 33.4997 116.96 33.6006C117.165 33.7015 117.317 33.8105 117.414 33.9277C117.512 34.0449 117.613 34.1882 117.717 34.3574H117.776V31.75H118.625V38.8203H117.805V38.0098H117.717C117.607 38.179 117.502 38.3223 117.405 38.4395C117.307 38.5566 117.156 38.6673 116.951 38.7715C116.746 38.8757 116.487 38.9277 116.174 38.9277ZM116.291 38.1758C116.61 38.1758 116.884 38.0911 117.112 37.9219C117.34 37.7526 117.512 37.5166 117.629 37.2139C117.746 36.9111 117.805 36.5612 117.805 36.1641C117.805 35.7669 117.748 35.4219 117.634 35.1289C117.52 34.8359 117.349 34.6081 117.121 34.4453C116.894 34.2826 116.617 34.2012 116.291 34.2012C115.966 34.2012 115.689 34.2858 115.461 34.4551C115.233 34.6243 115.061 34.8571 114.944 35.1533C114.827 35.4495 114.768 35.7865 114.768 36.1641C114.768 36.5482 114.827 36.8916 114.944 37.1943C115.061 37.4971 115.233 37.7363 115.461 37.9121C115.689 38.0879 115.966 38.1758 116.291 38.1758ZM123.13 33.5176H123.96V38.8203H123.13V37.9219H123.071C122.935 38.2083 122.735 38.4411 122.471 38.6201C122.207 38.7992 121.883 38.8887 121.499 38.8887C121.161 38.8887 120.863 38.8138 120.606 38.6641C120.349 38.5143 120.147 38.2897 120 37.9902C119.854 37.6908 119.78 37.3229 119.78 36.8867V33.5176H120.62V36.8281C120.62 37.0755 120.669 37.2936 120.767 37.4824C120.864 37.6712 121.001 37.8177 121.177 37.9219C121.353 38.026 121.551 38.0781 121.773 38.0781C121.988 38.0781 122.199 38.0244 122.407 37.917C122.616 37.8096 122.788 37.6468 122.925 37.4287C123.062 37.2106 123.13 36.9486 123.13 36.6426V33.5176ZM127.176 38.9277C126.688 38.9277 126.259 38.8105 125.892 38.5762C125.524 38.3418 125.242 38.0179 125.047 37.6045C124.852 37.1911 124.754 36.7207 124.754 36.1934C124.754 35.6595 124.855 35.1842 125.057 34.7676C125.258 34.3509 125.54 34.027 125.901 33.7959C126.263 33.5648 126.681 33.4492 127.156 33.4492C127.534 33.4492 127.874 33.5176 128.177 33.6543C128.479 33.791 128.725 33.9863 128.914 34.2402C129.103 34.4941 129.22 34.7871 129.266 35.1191H128.426C128.387 34.9499 128.312 34.7952 128.201 34.6553C128.09 34.5153 127.949 34.403 127.776 34.3184C127.604 34.2337 127.404 34.1914 127.176 34.1914C126.863 34.1914 126.588 34.2728 126.351 34.4355C126.113 34.5983 125.927 34.8278 125.794 35.124C125.66 35.4202 125.594 35.7669 125.594 36.1641C125.594 36.5677 125.659 36.9209 125.789 37.2236C125.919 37.5264 126.103 37.7607 126.341 37.9268C126.578 38.0928 126.857 38.1758 127.176 38.1758C127.384 38.1758 127.575 38.14 127.747 38.0684C127.92 37.9967 128.064 37.891 128.182 37.751C128.299 37.611 128.38 37.4466 128.426 37.2578H129.266C129.22 37.5768 129.106 37.8617 128.924 38.1123C128.742 38.363 128.501 38.5615 128.201 38.708C127.902 38.8545 127.56 38.9277 127.176 38.9277ZM132.315 34.2207H129.552V33.5176H132.315V34.2207ZM131.202 32.248V37.2969C131.202 37.5117 131.233 37.6761 131.295 37.79C131.357 37.904 131.438 37.9821 131.539 38.0244C131.64 38.0667 131.759 38.0879 131.895 38.0879C132.058 38.0879 132.224 38.0814 132.393 38.0684V38.8496C132.224 38.8757 132.029 38.8887 131.807 38.8887C131.56 38.8887 131.326 38.8366 131.104 38.7324C130.883 38.6283 130.702 38.472 130.562 38.2637C130.422 38.0553 130.352 37.8047 130.352 37.5117V32.248H131.202Z" fill="#427ABF"/>
<path d="M14.9093 17H18.6285V23.1714L14.1884 18.4694C13.8765 18.1392 14.0027 17.693 14.2016 17.3548C14.345 17.1109 14.6263 17 14.9093 17Z" fill="#EEF4FB"/>
<g filter="url(#filter1_d_691_5911)">
<path d="M131.257 58.2645L129.533 43.8121C129.335 42.1477 131.253 41.079 132.564 42.124L143.798 51.0807C145.175 52.178 144.417 54.3959 142.657 54.4216L138.756 54.4787C138.143 54.4876 137.573 54.796 137.23 55.3043L134.673 59.0916C133.701 60.5313 131.463 59.9894 131.257 58.2645Z" fill="url(#paint0_linear_691_5911)"/>
</g>
</g>
<defs>
<filter id="filter0_d_691_5911" x="-10.5" y="0.875" width="185" height="72.1699" filterUnits="userSpaceOnUse" color-interpolation-filters="sRGB">
<feFlood flood-opacity="0" result="BackgroundImageFix"/>
<feColorMatrix in="SourceAlpha" type="matrix" values="0 0 0 0 0 0 0 0 0 0 0 0 0 0 0 0 0 0 127 0" result="hardAlpha"/>
<feOffset dy="1.875"/>
<feGaussianBlur stdDeviation="5.625"/>
<feComposite in2="hardAlpha" operator="out"/>
<feColorMatrix type="matrix" values="0 0 0 0 0.947217 0 0 0 0 0.970781 0 0 0 0 1 0 0 0 0.08 0"/>
<feBlend mode="normal" in2="BackgroundImageFix" result="effect1_dropShadow_691_5911"/>
<feBlend mode="normal" in="SourceGraphic" in2="effect1_dropShadow_691_5911" result="shape"/>
</filter>
<filter id="filter1_d_691_5911" x="126.395" y="38.584" width="21.2383" height="24.4609" filterUnits="userSpaceOnUse" color-interpolation-filters="sRGB">
<feFlood flood-opacity="0" result="BackgroundImageFix"/>
<feColorMatrix in="SourceAlpha" type="matrix" values="0 0 0 0 0 0 0 0 0 0 0 0 0 0 0 0 0 0 127 0" result="hardAlpha"/>
<feOffset/>
<feGaussianBlur stdDeviation="1.5625"/>
<feComposite in2="hardAlpha" operator="out"/>
<feColorMatrix type="matrix" values="0 0 0 0 0.94902 0 0 0 0 0.972549 0 0 0 0 1 0 0 0 0.5 0"/>
<feBlend mode="normal" in2="BackgroundImageFix" result="effect1_dropShadow_691_5911"/>
<feBlend mode="normal" in="SourceGraphic" in2="effect1_dropShadow_691_5911" result="shape"/>
</filter>
<linearGradient id="paint0_linear_691_5911" x1="128.696" y1="39.4473" x2="139.946" y2="58.9329" gradientUnits="userSpaceOnUse">
<stop stop-color="#3A72B6"/>
<stop offset="1" stop-color="#4D8EDE"/>
</linearGradient>
</defs>
</svg>
