<svg width="11" height="15" viewBox="0 0 11 15" fill="none" xmlns="http://www.w3.org/2000/svg">
<path d="M8.80281 7.56646C8.78914 5.76964 10.1424 4.89382 10.2054 4.85468C9.43834 3.62671 8.24948 3.45816 7.83035 3.44612C6.83051 3.33177 5.86352 4.10226 5.35402 4.10226C4.83627 4.10226 4.05281 3.45816 3.20637 3.47624C2.11884 3.49428 1.10256 4.18654 0.546477 5.258C-0.604047 7.44607 0.253375 10.6604 1.35732 12.4302C1.90791 13.297 2.55168 14.2631 3.39539 14.23C4.21991 14.1939 4.52947 13.6521 5.52384 13.6521C6.51 13.6521 6.80036 14.23 7.66053 14.2089C8.54533 14.1939 9.10415 13.3391 9.63557 12.4663C10.2738 11.4731 10.5286 10.4949 10.5396 10.4468C10.5177 10.4317 8.81926 9.71842 8.80281 7.56646ZM7.1784 2.28136C7.62216 1.6704 7.92622 0.842726 7.84131 0C7.20032 0.0300811 6.39494 0.487561 5.93473 1.08351C5.52659 1.6102 5.1595 2.47097 5.2554 3.2806C5.97309 3.33777 6.71545 2.88029 7.1784 2.28136Z" fill="white"/>
</svg>
