<svg width="11" height="12" viewBox="0 0 11 12" fill="none" xmlns="http://www.w3.org/2000/svg">
<path d="M0.265947 11.9432C0.0886404 11.8503 0 11.6182 0 11.3861C0 11.3396 0 11.2468 0 11.2004C0 7.76478 0 4.32917 0 0.940011C0 0.7543 0.0443203 0.615037 0.0886404 0.429327C0.132986 0.336458 0.221627 0.243616 0.310293 0.150774C2.21629 2.14712 4.07797 4.14346 5.93965 6.13983C4.03365 7.99688 2.17197 9.94683 0.265947 11.9432Z" fill="white"/>
<path d="M7.80101 4.09773C7.26909 4.65486 6.69285 5.21197 6.16096 5.81552C4.38792 3.91202 2.57056 2.00852 0.797526 0.105015C0.797526 0.105015 0.797526 0.0585938 0.841846 0.0585938C3.1468 1.40496 5.45173 2.75136 7.80101 4.09773Z" fill="white"/>
<path d="M0.797526 11.9437C2.57056 10.0866 4.38792 8.22956 6.16096 6.37248C6.64853 6.88317 7.18045 7.39388 7.75669 7.95098C5.45173 9.29738 3.1468 10.6437 0.841846 11.9437H0.797526Z" fill="white"/>
<path d="M8.06745 7.76537C7.49121 7.20826 6.95932 6.65113 6.38308 6.09403C6.95932 5.49047 7.53556 4.88692 8.11177 4.28337C8.28908 4.37621 8.46638 4.46908 8.64369 4.60834C9.08694 4.88692 9.57454 5.11905 10.0178 5.3976C10.1508 5.44403 10.2394 5.53689 10.3281 5.67616C10.5054 5.90829 10.5054 6.14045 10.3281 6.37258C10.2394 6.46542 10.1508 6.55829 10.0178 6.60471C9.39724 7.02255 8.73236 7.39397 8.06745 7.76537Z" fill="white"/>
</svg>
